<svg width="1940" height="343" viewBox="0 0 1940 343" fill="none" xmlns="http://www.w3.org/2000/svg">
<g clip-path="url(#clip0_880_619)">
<rect width="1940" height="343" fill="white"/>
<rect x="-3.8999" width="80.3148" height="20.5514" rx="3" fill="#E14646" fill-opacity="0.3"/>
<path d="M3.75297 14V3.81818H7.19332C7.98877 3.81818 8.64171 3.95407 9.15212 4.22585C9.66254 4.49432 10.0404 4.86387 10.2856 5.33452C10.5309 5.80516 10.6535 6.34044 10.6535 6.94034C10.6535 7.54025 10.5309 8.07221 10.2856 8.53622C10.0404 9.00024 9.6642 9.36482 9.15709 9.62997C8.64999 9.89181 8.00203 10.0227 7.2132 10.0227H4.42911V8.90909H7.17343C7.71699 8.90909 8.15449 8.82955 8.48593 8.67045C8.82068 8.51136 9.06263 8.28598 9.21178 7.99432C9.36424 7.69934 9.44047 7.34801 9.44047 6.94034C9.44047 6.53267 9.36424 6.17637 9.21178 5.87145C9.05932 5.56652 8.81571 5.3312 8.48096 5.16548C8.1462 4.99645 7.70373 4.91193 7.15354 4.91193H4.98593V14H3.75297ZM8.54559 9.42614L11.0513 14H9.61945L7.15354 9.42614H8.54559ZM15.6686 14.1591C14.9328 14.1591 14.2981 13.9967 13.7645 13.6719C13.2342 13.3438 12.8249 12.8864 12.5365 12.2997C12.2515 11.7098 12.109 11.0237 12.109 10.2415C12.109 9.45928 12.2515 8.76989 12.5365 8.1733C12.8249 7.57339 13.2259 7.10606 13.7397 6.77131C14.2567 6.43324 14.8599 6.2642 15.5493 6.2642C15.947 6.2642 16.3398 6.33049 16.7276 6.46307C17.1154 6.59564 17.4684 6.81108 17.7865 7.10938C18.1047 7.40436 18.3583 7.79545 18.5472 8.28267C18.7361 8.76989 18.8306 9.36979 18.8306 10.0824V10.5795H12.9442V9.56534H17.6374C17.6374 9.13447 17.5512 8.75 17.3789 8.41193C17.2098 8.07386 16.9679 7.80705 16.653 7.61151C16.3415 7.41596 15.9736 7.31818 15.5493 7.31818C15.082 7.31818 14.6776 7.43419 14.3362 7.66619C13.9982 7.89489 13.738 8.19318 13.5557 8.56108C13.3734 8.92898 13.2823 9.32339 13.2823 9.74432V10.4205C13.2823 10.9972 13.3817 11.486 13.5806 11.8871C13.7827 12.2848 14.0628 12.5881 14.4208 12.7969C14.7787 13.0024 15.1947 13.1051 15.6686 13.1051C15.9769 13.1051 16.2553 13.062 16.5039 12.9759C16.7558 12.8864 16.9728 12.7538 17.1551 12.5781C17.3374 12.3991 17.4783 12.1771 17.5777 11.9119L18.7112 12.2301C18.5919 12.6146 18.3914 12.9527 18.1097 13.2443C17.828 13.5327 17.48 13.758 17.0657 13.9205C16.6514 14.0795 16.1857 14.1591 15.6686 14.1591ZM23.4989 14.1591C22.8625 14.1591 22.3007 13.9983 21.8135 13.6768C21.3263 13.352 20.9451 12.8946 20.6701 12.3047C20.395 11.7114 20.2574 11.0104 20.2574 10.2017C20.2574 9.39962 20.395 8.7036 20.6701 8.11364C20.9451 7.52367 21.328 7.06794 21.8185 6.74645C22.309 6.42495 22.8758 6.2642 23.5188 6.2642C24.0159 6.2642 24.4087 6.34706 24.697 6.51278C24.9887 6.67519 25.2108 6.8608 25.3632 7.0696C25.519 7.27509 25.64 7.44413 25.7262 7.5767H25.8256V3.81818H26.9989V14H25.8654V12.8267H25.7262C25.64 12.9659 25.5174 13.1416 25.3583 13.3537C25.1992 13.5625 24.9721 13.7498 24.6772 13.9155C24.3822 14.0779 23.9894 14.1591 23.4989 14.1591ZM23.658 13.1051C24.1286 13.1051 24.5264 12.9825 24.8512 12.7372C25.176 12.4886 25.4229 12.1456 25.5919 11.7081C25.761 11.2673 25.8455 10.7585 25.8455 10.1818C25.8455 9.61174 25.7626 9.11293 25.5969 8.68537C25.4312 8.2545 25.1859 7.91974 24.8611 7.68111C24.5363 7.43916 24.1353 7.31818 23.658 7.31818C23.1608 7.31818 22.7465 7.44579 22.4151 7.70099C22.087 7.95289 21.84 8.29593 21.6743 8.73011C21.5119 9.16098 21.4307 9.64489 21.4307 10.1818C21.4307 10.7254 21.5136 11.2192 21.6793 11.6634C21.8483 12.1042 22.0969 12.4555 22.425 12.7173C22.7565 12.9759 23.1675 13.1051 23.658 13.1051ZM36.5692 6.36364V7.35795H32.6118V6.36364H36.5692ZM33.7652 4.53409H34.9385V11.8125C34.9385 12.1439 34.9866 12.3925 35.0827 12.5582C35.1821 12.7206 35.3081 12.83 35.4605 12.8864C35.6163 12.9394 35.7804 12.9659 35.9527 12.9659C36.082 12.9659 36.188 12.9593 36.2709 12.946C36.3538 12.9295 36.4201 12.9162 36.4698 12.9062L36.7084 13.9602C36.6289 13.9901 36.5178 14.0199 36.3753 14.0497C36.2328 14.0829 36.0522 14.0994 35.8334 14.0994C35.502 14.0994 35.1772 14.0282 34.859 13.8857C34.5441 13.7431 34.2823 13.526 34.0735 13.2344C33.868 12.9427 33.7652 12.5748 33.7652 12.1307V4.53409ZM40.5813 14.179C40.0974 14.179 39.6582 14.0878 39.2638 13.9055C38.8694 13.7199 38.5562 13.4531 38.3242 13.1051C38.0922 12.7538 37.9762 12.3295 37.9762 11.8324C37.9762 11.3949 38.0623 11.0402 38.2347 10.7685C38.407 10.4934 38.6374 10.2779 38.9257 10.1222C39.2141 9.96638 39.5323 9.85038 39.8803 9.77415C40.2316 9.6946 40.5846 9.63163 40.9392 9.58523C41.4032 9.52557 41.7794 9.48082 42.0678 9.45099C42.3594 9.41785 42.5716 9.36316 42.7041 9.28693C42.84 9.2107 42.908 9.07812 42.908 8.8892V8.84943C42.908 8.3589 42.7737 7.97775 42.5053 7.70597C42.2401 7.43419 41.8374 7.2983 41.2972 7.2983C40.7371 7.2983 40.2979 7.42093 39.9797 7.66619C39.6615 7.91146 39.4378 8.1733 39.3085 8.4517L38.1949 8.05398C38.3938 7.58996 38.6589 7.22869 38.9904 6.97017C39.3251 6.70833 39.6897 6.52604 40.0841 6.4233C40.4818 6.31723 40.8729 6.2642 41.2574 6.2642C41.5027 6.2642 41.7844 6.29403 42.1026 6.35369C42.4241 6.41004 42.734 6.5277 43.0323 6.70668C43.3339 6.88565 43.5841 7.15578 43.783 7.51705C43.9818 7.87831 44.0813 8.36222 44.0813 8.96875V14H42.908V12.9659H42.8483C42.7688 13.1316 42.6362 13.3089 42.4506 13.4979C42.265 13.6868 42.0181 13.8475 41.7098 13.9801C41.4016 14.1127 41.0254 14.179 40.5813 14.179ZM40.7603 13.125C41.2243 13.125 41.6154 13.0339 41.9335 12.8516C42.255 12.6693 42.497 12.4339 42.6594 12.1456C42.8251 11.8572 42.908 11.554 42.908 11.2358V10.1619C42.8583 10.2216 42.7489 10.2763 42.5799 10.326C42.4141 10.3724 42.2219 10.4138 42.0032 10.4503C41.7877 10.4834 41.5773 10.5133 41.3718 10.5398C41.1696 10.563 41.0055 10.5829 40.8796 10.5994C40.5746 10.6392 40.2896 10.7038 40.0245 10.7933C39.7626 10.8795 39.5505 11.0104 39.3881 11.1861C39.229 11.3584 39.1495 11.5937 39.1495 11.892C39.1495 12.2997 39.3003 12.608 39.6019 12.8168C39.9068 13.0223 40.2929 13.125 40.7603 13.125ZM49.3052 17.0227C48.7384 17.0227 48.2512 16.9498 47.8435 16.804C47.4359 16.6615 47.0961 16.4725 46.8244 16.2372C46.5559 16.0052 46.3421 15.7566 46.183 15.4915L47.1177 14.8352C47.2237 14.9744 47.358 15.1335 47.5204 15.3125C47.6828 15.4948 47.9048 15.6522 48.1866 15.7848C48.4716 15.9207 48.8445 15.9886 49.3052 15.9886C49.9217 15.9886 50.4304 15.8395 50.8315 15.5412C51.2325 15.2429 51.433 14.7756 51.433 14.1392V12.5881H51.3336C51.2474 12.7273 51.1248 12.8996 50.9657 13.1051C50.8099 13.3073 50.5845 13.4879 50.2896 13.647C49.9979 13.8028 49.6035 13.8807 49.1063 13.8807C48.4898 13.8807 47.9363 13.7348 47.4458 13.4432C46.9586 13.1515 46.5725 12.7273 46.2874 12.1705C46.0057 11.6136 45.8648 10.9375 45.8648 10.142C45.8648 9.35985 46.0024 8.67874 46.2775 8.09872C46.5526 7.51539 46.9354 7.06463 47.4259 6.74645C47.9164 6.42495 48.4832 6.2642 49.1262 6.2642C49.6234 6.2642 50.0178 6.34706 50.3094 6.51278C50.6044 6.67519 50.8298 6.8608 50.9856 7.0696C51.1447 7.27509 51.2673 7.44413 51.3535 7.5767H51.4728V6.36364H52.6063V14.2188C52.6063 14.875 52.4572 15.4086 52.1589 15.8196C51.8639 16.2339 51.4662 16.5372 50.9657 16.7294C50.4685 16.925 49.915 17.0227 49.3052 17.0227ZM49.2654 12.8267C49.736 12.8267 50.1338 12.719 50.4586 12.5036C50.7834 12.2881 51.0303 11.9782 51.1994 11.5739C51.3684 11.1695 51.4529 10.6856 51.4529 10.1222C51.4529 9.57197 51.37 9.08641 51.2043 8.66548C51.0386 8.24455 50.7933 7.91477 50.4685 7.67614C50.1437 7.4375 49.7427 7.31818 49.2654 7.31818C48.7682 7.31818 48.3539 7.44413 48.0225 7.69602C47.6944 7.94792 47.4475 8.28598 47.2817 8.71023C47.1193 9.13447 47.0381 9.60511 47.0381 10.1222C47.0381 10.6525 47.121 11.1214 47.2867 11.5291C47.4557 11.9335 47.7043 12.2517 48.0324 12.4837C48.3639 12.7124 48.7749 12.8267 49.2654 12.8267Z" fill="#37352F"/>
<path d="M-4 0H1944V343H-4V0Z" fill="#CCFFE2"/>
<path fill-rule="evenodd" clip-rule="evenodd" d="M1943.55 237.166V343H475.379C535.532 293.689 599.915 248.214 668.419 207.173C1082.63 -40.9786 1540.57 29.3671 1943.55 237.166Z" fill="#FFECEA"/>
<path fill-rule="evenodd" clip-rule="evenodd" d="M1373.87 169.08C1373.93 113.585 1408.92 58.5251 1467.21 46.2885C1518.96 35.4248 1554.8 83.7468 1584.16 124.932C1611.76 163.654 1640.07 210.578 1611.16 248.223C1579.64 289.281 1518.29 294.69 1466.96 277.571C1415.17 260.296 1373.82 220.063 1373.87 169.08Z" fill="#0018A4"/>
<path fill-rule="evenodd" clip-rule="evenodd" d="M135.668 64.0355C166.613 63.0843 197.932 81.711 205.784 114.146C212.755 142.942 186.443 163.876 163.996 181.054C142.892 197.204 117.226 213.893 95.7253 198.369C72.2753 181.438 68.1762 147.165 76.8156 118.11C85.5343 88.7876 107.239 64.9093 135.668 64.0355Z" fill="white"/>
<rect x="-4" width="1944" height="100" fill="#0018A4"/>
<path d="M-51.5918 41.746C-51.5918 36.826 -47.5738 32.849 -42.4898 32.849C-38.5538 32.849 -35.2328 35.268 -33.9618 38.671L-34.5358 38.917C-35.7248 35.719 -38.8408 33.423 -42.4898 33.464C-47.1638 33.505 -50.9768 37.154 -50.9358 41.746C-50.8948 45.6 -48.2708 48.88 -44.6218 49.7L-41.6698 50.356C-40.1938 50.684 -39.0868 52.037 -39.0868 53.554C-39.0868 55.399 -40.6448 56.875 -42.6128 56.875C-44.2938 56.875 -45.6878 55.768 -46.0568 54.292L-45.4418 54.005C-45.1958 55.276 -44.0478 56.301 -42.6128 56.26C-41.0138 56.219 -39.7838 55.03 -39.7428 53.554C-39.7018 52.324 -40.6038 51.258 -41.8748 50.971L-44.7448 50.356C-48.7628 49.495 -51.5918 45.887 -51.5918 41.746ZM-51.1818 56.629L-50.5668 56.342C-49.4188 59.581 -46.3028 61.877 -42.6128 61.836C-37.9388 61.795 -34.1258 58.146 -34.1668 53.554C-34.2078 49.7 -36.8318 46.42 -40.4808 45.6L-43.4328 44.944C-44.9088 44.616 -46.0158 43.263 -46.0158 41.746C-46.0158 39.901 -44.4578 38.425 -42.4898 38.425C-40.8088 38.425 -39.4148 39.491 -39.0868 40.967L-39.6608 41.254C-39.9068 39.983 -41.0958 38.999 -42.4898 39.04C-44.0888 39.081 -45.3188 40.27 -45.3598 41.746C-45.4008 42.976 -44.4988 44.042 -43.2278 44.329L-40.3578 44.944C-36.3398 45.805 -33.5108 49.413 -33.5108 53.554C-33.5108 58.474 -37.5288 62.451 -42.6128 62.451C-46.5898 62.451 -49.9108 60.032 -51.1818 56.629ZM-28.7052 40.926H-31.9442V40.27H-28.7052V33.3H-28.0492V40.27H-23.1292V33.3H-22.4732V40.27H-19.2342V40.926H-22.4732V45.846H-19.2342V46.502H-22.4732V62H-23.1292V46.502H-28.0492V62H-28.7052V46.502H-31.9442V45.846H-28.7052V40.926ZM-23.1292 40.926H-28.0492V45.846H-23.1292V40.926ZM5.75595 40.27L-8.43005 71.02H-9.12705L-6.58505 65.526L-9.45505 59.376L-14.8261 71.02H-15.5231L-9.78305 58.597L-18.3521 40.27H-17.6551L-9.45505 57.859L-6.62605 51.75L-11.9561 40.27H-11.2591L-6.25705 50.971L-1.33705 40.27H-0.64005L-5.92905 51.709L-3.05905 57.859L5.05895 40.27H5.75595ZM-6.21605 64.747L-3.38705 58.638L-6.25705 52.488L-9.08605 58.638L-6.21605 64.747ZM8.37835 31.25V62H7.72235V31.25H8.37835ZM13.9543 31.25V62H13.2983V31.25H13.9543ZM16.9025 51.135C16.9025 44.862 21.9865 39.778 28.2595 39.778C33.2615 39.778 37.4845 42.976 39.0015 47.486L25.6765 55.563C26.4555 56.014 27.3165 56.26 28.2595 56.26C30.3095 56.26 32.0725 55.03 32.8925 53.308L33.5075 53.595C32.6055 55.563 30.5965 56.916 28.2595 56.916C27.0705 56.916 25.9635 56.547 25.0615 55.932L20.6335 58.638C22.5605 60.606 25.2665 61.836 28.2595 61.836C32.5235 61.836 36.2545 59.294 37.9765 55.645L38.5505 55.932C36.7465 59.827 32.8105 62.492 28.2595 62.492C21.9865 62.492 16.9025 57.408 16.9025 51.135ZM17.5585 51.135C17.5585 52.324 17.7635 53.431 18.0915 54.497L22.5195 51.791C22.4785 51.586 22.4785 51.34 22.4785 51.135C22.4785 47.937 25.0615 45.354 28.2595 45.354C29.4485 45.354 30.5965 45.723 31.4985 46.338L35.8855 43.673C33.9585 41.664 31.2525 40.434 28.2595 40.434C22.3555 40.434 17.5585 45.231 17.5585 51.135ZM18.3375 55.112C18.7885 56.219 19.4035 57.244 20.1825 58.146L24.4875 55.522C23.5855 54.743 22.9295 53.677 22.6425 52.488L18.3375 55.112ZM23.1345 51.135V51.422L30.8835 46.707C30.1045 46.256 29.2025 46.01 28.2595 46.01C25.4305 46.01 23.1345 48.306 23.1345 51.135ZM23.2165 52.16C23.4625 53.349 24.1595 54.415 25.1025 55.153L33.3025 50.151C33.0565 48.962 32.4005 47.896 31.4575 47.117L23.2165 52.16ZM32.0725 46.789C32.9745 47.568 33.6305 48.593 33.8765 49.823L38.2225 47.158C37.7715 46.051 37.1155 45.067 36.3775 44.165L32.0725 46.789ZM39.7648 51.135C39.7648 44.862 44.8488 39.778 51.1218 39.778C52.9668 39.778 54.6888 40.229 56.2468 41.008V31.25H56.9028V41.377C59.1988 42.648 60.9618 44.944 61.8228 47.322V31.25H62.4788V62H61.8228V54.907C61.0028 57.244 59.1988 59.663 56.9028 60.934V62H56.2468V61.262C54.6888 62.041 52.9668 62.492 51.1218 62.492C44.8488 62.492 39.7648 57.408 39.7648 51.135ZM40.4208 51.135C40.4208 57.039 45.2178 61.836 51.1218 61.836C52.9668 61.836 54.7298 61.385 56.2468 60.565V53.841C55.2628 55.645 53.3358 56.916 51.1218 56.916C47.9238 56.916 45.3408 54.333 45.3408 51.135C45.3408 47.937 47.9238 45.354 51.1218 45.354C53.3358 45.354 55.2628 46.625 56.2468 48.47V41.746C54.7298 40.926 52.9668 40.434 51.1218 40.434C45.2178 40.434 40.4208 45.231 40.4208 51.135ZM45.9968 51.135C45.9968 53.964 48.2928 56.26 51.1218 56.26C53.9918 56.26 56.2468 53.964 56.2468 51.135C56.2468 48.306 53.9918 46.01 51.1218 46.01C48.2928 46.01 45.9968 48.306 45.9968 51.135ZM56.9028 42.115V60.155C59.6498 58.474 61.8228 55.071 61.8228 51.135C61.8228 47.199 59.6498 43.796 56.9028 42.115ZM90.5202 56.424H88.5112C83.4682 56.424 79.7782 52.447 79.7782 47.65C79.7782 42.812 83.4682 38.876 88.5112 38.876H90.5202V39.532H88.5112C83.8782 39.532 80.4342 43.14 80.4342 47.65C80.4342 52.119 83.8782 55.768 88.5112 55.768H90.5202V56.424ZM90.5202 62H88.5112C80.5572 62 74.2022 55.563 74.2022 47.65C74.2022 39.737 80.5572 33.3 88.5112 33.3H90.5202V33.956H88.5112C80.8852 33.956 74.8582 40.065 74.8582 47.65C74.8582 55.235 80.8852 61.344 88.5112 61.344H90.5202V62ZM103.293 62.492C97.0197 62.492 91.9357 57.408 91.9357 51.135C91.9357 44.862 97.0197 39.778 103.293 39.778C109.566 39.778 114.65 44.862 114.65 51.135C114.65 57.408 109.566 62.492 103.293 62.492ZM103.293 61.836C109.197 61.836 113.994 57.039 113.994 51.135C113.994 45.231 109.197 40.434 103.293 40.434C97.3887 40.434 92.5917 45.231 92.5917 51.135C92.5917 57.039 97.3887 61.836 103.293 61.836ZM103.293 56.916C100.095 56.916 97.5117 54.333 97.5117 51.135C97.5117 47.937 100.095 45.354 103.293 45.354C106.491 45.354 109.074 47.937 109.074 51.135C109.074 54.333 106.491 56.916 103.293 56.916ZM103.293 56.26C106.122 56.26 108.418 53.964 108.418 51.135C108.418 48.306 106.122 46.01 103.293 46.01C100.464 46.01 98.1677 48.306 98.1677 51.135C98.1677 53.964 100.464 56.26 103.293 56.26ZM117.59 62V40.27H118.246V45.969C119.148 43.714 120.952 41.869 123.166 40.885V40.27H123.822V40.639C124.765 40.311 125.831 40.106 126.897 40.106C129.275 40.106 131.448 41.008 133.088 42.484C134.728 41.008 136.901 40.106 139.279 40.106C144.404 40.106 148.586 44.288 148.586 49.413V62H147.93V49.413C147.93 44.657 144.035 40.762 139.279 40.762C137.106 40.762 135.097 41.582 133.58 42.935C134.81 44.206 135.671 45.805 136.04 47.609C136.655 46.461 137.885 45.682 139.279 45.682C141.329 45.682 143.01 47.363 143.01 49.413V62H142.354V49.413C142.354 47.732 140.96 46.338 139.279 46.338C137.598 46.338 136.204 47.732 136.204 49.413V62H135.548V49.413C135.548 47.076 134.605 44.944 133.088 43.386C131.571 44.944 130.628 47.076 130.628 49.413V62H129.972V49.413C129.972 47.732 128.578 46.338 126.897 46.338C125.216 46.338 123.822 47.732 123.822 49.413V62H123.166V41.623C120.255 43.017 118.246 46.01 118.246 49.413V62H117.59ZM123.822 41.336V47.322C124.478 46.338 125.626 45.682 126.897 45.682C128.291 45.682 129.521 46.461 130.136 47.609C130.505 45.805 131.366 44.206 132.596 42.935C131.079 41.582 129.07 40.762 126.897 40.762C125.831 40.762 124.765 40.967 123.822 41.336ZM158.04 60.155V42.115C155.293 43.796 153.12 47.199 153.12 51.135C153.12 55.071 155.293 58.474 158.04 60.155ZM163.821 62.492C161.976 62.492 160.254 62.041 158.696 61.262V71.02H158.04V60.893C155.744 59.622 153.94 57.285 153.12 54.948V71.02H152.464V40.27H153.12V47.363C153.94 44.985 155.744 42.607 158.04 41.336V40.27H158.696V41.008C160.254 40.229 161.976 39.778 163.821 39.778C170.094 39.778 175.178 44.862 175.178 51.135C175.178 57.408 170.094 62.492 163.821 62.492ZM163.821 56.916C161.607 56.916 159.68 55.645 158.696 53.8V60.524C160.213 61.344 161.976 61.836 163.821 61.836C169.725 61.836 174.522 57.039 174.522 51.135C174.522 45.231 169.725 40.434 163.821 40.434C161.976 40.434 160.213 40.885 158.696 41.705V48.429C159.68 46.625 161.607 45.354 163.821 45.354C167.019 45.354 169.602 47.937 169.602 51.135C169.602 54.333 167.019 56.916 163.821 56.916ZM163.821 46.01C160.951 46.01 158.696 48.306 158.696 51.135C158.696 53.964 160.951 56.26 163.821 56.26C166.65 56.26 168.946 53.964 168.946 51.135C168.946 48.306 166.65 46.01 163.821 46.01ZM188.256 62.492C181.983 62.492 176.899 57.408 176.899 51.135C176.899 44.862 181.983 39.778 188.256 39.778C194.529 39.778 199.613 44.862 199.613 51.135C199.613 57.408 194.529 62.492 188.256 62.492ZM188.256 61.836C194.16 61.836 198.957 57.039 198.957 51.135C198.957 45.231 194.16 40.434 188.256 40.434C182.352 40.434 177.555 45.231 177.555 51.135C177.555 57.039 182.352 61.836 188.256 61.836ZM188.256 56.916C185.058 56.916 182.475 54.333 182.475 51.135C182.475 47.937 185.058 45.354 188.256 45.354C191.454 45.354 194.037 47.937 194.037 51.135C194.037 54.333 191.454 56.916 188.256 56.916ZM188.256 56.26C191.085 56.26 193.381 53.964 193.381 51.135C193.381 48.306 191.085 46.01 188.256 46.01C185.427 46.01 183.131 48.306 183.131 51.135C183.131 53.964 185.427 56.26 188.256 56.26ZM202.552 62V40.27H203.208V46.461C204.11 44.124 205.873 42.197 208.128 41.09V40.27H208.784V40.762C209.932 40.311 211.162 40.065 212.474 40.065C217.927 40.065 222.396 44.534 222.396 49.987V62H221.74V49.987C221.74 44.903 217.558 40.721 212.474 40.721C211.162 40.721 209.932 41.008 208.784 41.5V47.691C209.563 46.461 210.916 45.641 212.474 45.641C214.852 45.641 216.82 47.609 216.82 49.987V62H216.164V49.987C216.164 47.978 214.483 46.297 212.474 46.297C210.465 46.297 208.784 47.978 208.784 49.987V62H208.128V41.828C205.217 43.386 203.208 46.461 203.208 49.987V62H202.552ZM225.026 51.135C225.026 44.862 230.11 39.778 236.383 39.778C241.385 39.778 245.608 42.976 247.125 47.486L233.8 55.563C234.579 56.014 235.44 56.26 236.383 56.26C238.433 56.26 240.196 55.03 241.016 53.308L241.631 53.595C240.729 55.563 238.72 56.916 236.383 56.916C235.194 56.916 234.087 56.547 233.185 55.932L228.757 58.638C230.684 60.606 233.39 61.836 236.383 61.836C240.647 61.836 244.378 59.294 246.1 55.645L246.674 55.932C244.87 59.827 240.934 62.492 236.383 62.492C230.11 62.492 225.026 57.408 225.026 51.135ZM225.682 51.135C225.682 52.324 225.887 53.431 226.215 54.497L230.643 51.791C230.602 51.586 230.602 51.34 230.602 51.135C230.602 47.937 233.185 45.354 236.383 45.354C237.572 45.354 238.72 45.723 239.622 46.338L244.009 43.673C242.082 41.664 239.376 40.434 236.383 40.434C230.479 40.434 225.682 45.231 225.682 51.135ZM226.461 55.112C226.912 56.219 227.527 57.244 228.306 58.146L232.611 55.522C231.709 54.743 231.053 53.677 230.766 52.488L226.461 55.112ZM231.258 51.135V51.422L239.007 46.707C238.228 46.256 237.326 46.01 236.383 46.01C233.554 46.01 231.258 48.306 231.258 51.135ZM231.34 52.16C231.586 53.349 232.283 54.415 233.226 55.153L241.426 50.151C241.18 48.962 240.524 47.896 239.581 47.117L231.34 52.16ZM240.196 46.789C241.098 47.568 241.754 48.593 242 49.823L246.346 47.158C245.895 46.051 245.239 45.067 244.501 44.165L240.196 46.789ZM249.118 62V40.27H249.774V46.461C250.676 44.124 252.439 42.197 254.694 41.09V40.27H255.35V40.762C256.498 40.311 257.728 40.065 259.04 40.065C264.493 40.065 268.962 44.534 268.962 49.987V62H268.306V49.987C268.306 44.903 264.124 40.721 259.04 40.721C257.728 40.721 256.498 41.008 255.35 41.5V47.691C256.129 46.461 257.482 45.641 259.04 45.641C261.418 45.641 263.386 47.609 263.386 49.987V62H262.73V49.987C262.73 47.978 261.049 46.297 259.04 46.297C257.031 46.297 255.35 47.978 255.35 49.987V62H254.694V41.828C251.783 43.386 249.774 46.461 249.774 49.987V62H249.118ZM274.471 40.926H271.232V40.27H274.471V33.3H275.127V40.27H280.047V33.3H280.703V40.27H283.942V40.926H280.703V45.846H283.942V46.502H280.703V62H280.047V46.502H275.127V62H274.471V46.502H271.232V45.846H274.471V40.926ZM280.047 40.926H275.127V45.846H280.047V40.926ZM285.931 46.953C285.931 42.976 289.129 39.778 293.106 39.778C296.058 39.778 298.6 41.582 299.707 44.124L299.092 44.411C298.108 42.074 295.771 40.434 293.106 40.434C289.498 40.434 286.587 43.345 286.587 46.953C286.587 50.028 288.678 52.57 291.548 53.308L293.352 53.759C294.049 53.923 294.541 54.579 294.541 55.317C294.541 56.219 293.844 56.916 292.942 56.916C292.245 56.916 291.671 56.506 291.425 55.85L292.04 55.604C292.163 55.973 292.491 56.26 292.942 56.26C293.475 56.26 293.885 55.85 293.885 55.317C293.885 54.866 293.639 54.497 293.188 54.374L291.343 53.923C288.227 53.144 285.931 50.315 285.931 46.953ZM286.341 58.187L286.956 57.9C287.94 60.237 290.236 61.836 292.942 61.836C296.55 61.836 299.461 58.925 299.461 55.317C299.461 52.242 297.37 49.7 294.5 48.962L292.696 48.511C291.958 48.306 291.507 47.691 291.507 46.953C291.507 46.051 292.204 45.354 293.106 45.354C293.803 45.354 294.377 45.805 294.582 46.42L294.008 46.666C293.885 46.297 293.516 46.01 293.106 46.01C292.573 46.01 292.163 46.42 292.163 46.953C292.163 47.404 292.409 47.773 292.86 47.896L294.705 48.347C297.862 49.126 300.117 51.955 300.117 55.317C300.117 59.294 296.919 62.492 292.942 62.492C289.99 62.492 287.448 60.729 286.341 58.187ZM311.242 41.746C311.242 36.826 315.26 32.849 320.344 32.849C324.28 32.849 327.601 35.268 328.872 38.671L328.298 38.917C327.109 35.719 323.993 33.423 320.344 33.464C315.67 33.505 311.857 37.154 311.898 41.746C311.939 45.6 314.563 48.88 318.212 49.7L321.164 50.356C322.64 50.684 323.747 52.037 323.747 53.554C323.747 55.399 322.189 56.875 320.221 56.875C318.54 56.875 317.146 55.768 316.777 54.292L317.392 54.005C317.638 55.276 318.786 56.301 320.221 56.26C321.82 56.219 323.05 55.03 323.091 53.554C323.132 52.324 322.23 51.258 320.959 50.971L318.089 50.356C314.071 49.495 311.242 45.887 311.242 41.746ZM311.652 56.629L312.267 56.342C313.415 59.581 316.531 61.877 320.221 61.836C324.895 61.795 328.708 58.146 328.667 53.554C328.626 49.7 326.002 46.42 322.353 45.6L319.401 44.944C317.925 44.616 316.818 43.263 316.818 41.746C316.818 39.901 318.376 38.425 320.344 38.425C322.025 38.425 323.419 39.491 323.747 40.967L323.173 41.254C322.927 39.983 321.738 38.999 320.344 39.04C318.745 39.081 317.515 40.27 317.474 41.746C317.433 42.976 318.335 44.042 319.606 44.329L322.476 44.944C326.494 45.805 329.323 49.413 329.323 53.554C329.323 58.474 325.305 62.451 320.221 62.451C316.244 62.451 312.923 60.032 311.652 56.629ZM334.129 40.926H330.89V40.27H334.129V33.3H334.785V40.27H339.705V33.3H340.361V40.27H343.6V40.926H340.361V45.846H343.6V46.502H340.361V62H339.705V46.502H334.785V62H334.129V46.502H330.89V45.846H334.129V40.926ZM339.705 40.926H334.785V45.846H339.705V40.926ZM368.59 40.27L354.404 71.02H353.707L356.249 65.526L353.379 59.376L348.008 71.02H347.311L353.051 58.597L344.482 40.27H345.179L353.379 57.859L356.208 51.75L350.878 40.27H351.575L356.577 50.971L361.497 40.27H362.194L356.905 51.709L359.775 57.859L367.893 40.27H368.59ZM356.618 64.747L359.447 58.638L356.577 52.488L353.748 58.638L356.618 64.747ZM371.212 31.25V62H370.556V31.25H371.212ZM376.788 31.25V62H376.132V31.25H376.788ZM379.736 51.135C379.736 44.862 384.82 39.778 391.093 39.778C396.095 39.778 400.318 42.976 401.835 47.486L388.51 55.563C389.289 56.014 390.15 56.26 391.093 56.26C393.143 56.26 394.906 55.03 395.726 53.308L396.341 53.595C395.439 55.563 393.43 56.916 391.093 56.916C389.904 56.916 388.797 56.547 387.895 55.932L383.467 58.638C385.394 60.606 388.1 61.836 391.093 61.836C395.357 61.836 399.088 59.294 400.81 55.645L401.384 55.932C399.58 59.827 395.644 62.492 391.093 62.492C384.82 62.492 379.736 57.408 379.736 51.135ZM380.392 51.135C380.392 52.324 380.597 53.431 380.925 54.497L385.353 51.791C385.312 51.586 385.312 51.34 385.312 51.135C385.312 47.937 387.895 45.354 391.093 45.354C392.282 45.354 393.43 45.723 394.332 46.338L398.719 43.673C396.792 41.664 394.086 40.434 391.093 40.434C385.189 40.434 380.392 45.231 380.392 51.135ZM381.171 55.112C381.622 56.219 382.237 57.244 383.016 58.146L387.321 55.522C386.419 54.743 385.763 53.677 385.476 52.488L381.171 55.112ZM385.968 51.135V51.422L393.717 46.707C392.938 46.256 392.036 46.01 391.093 46.01C388.264 46.01 385.968 48.306 385.968 51.135ZM386.05 52.16C386.296 53.349 386.993 54.415 387.936 55.153L396.136 50.151C395.89 48.962 395.234 47.896 394.291 47.117L386.05 52.16ZM394.906 46.789C395.808 47.568 396.464 48.593 396.71 49.823L401.056 47.158C400.605 46.051 399.949 45.067 399.211 44.165L394.906 46.789ZM402.599 51.135C402.599 44.862 407.683 39.778 413.956 39.778C415.801 39.778 417.523 40.229 419.081 41.008V31.25H419.737V41.377C422.033 42.648 423.796 44.944 424.657 47.322V31.25H425.313V62H424.657V54.907C423.837 57.244 422.033 59.663 419.737 60.934V62H419.081V61.262C417.523 62.041 415.801 62.492 413.956 62.492C407.683 62.492 402.599 57.408 402.599 51.135ZM403.255 51.135C403.255 57.039 408.052 61.836 413.956 61.836C415.801 61.836 417.564 61.385 419.081 60.565V53.841C418.097 55.645 416.17 56.916 413.956 56.916C410.758 56.916 408.175 54.333 408.175 51.135C408.175 47.937 410.758 45.354 413.956 45.354C416.17 45.354 418.097 46.625 419.081 48.47V41.746C417.564 40.926 415.801 40.434 413.956 40.434C408.052 40.434 403.255 45.231 403.255 51.135ZM408.831 51.135C408.831 53.964 411.127 56.26 413.956 56.26C416.826 56.26 419.081 53.964 419.081 51.135C419.081 48.306 416.826 46.01 413.956 46.01C411.127 46.01 408.831 48.306 408.831 51.135ZM419.737 42.115V60.155C422.484 58.474 424.657 55.071 424.657 51.135C424.657 47.199 422.484 43.796 419.737 42.115ZM453.354 56.424H451.345C446.302 56.424 442.612 52.447 442.612 47.65C442.612 42.812 446.302 38.876 451.345 38.876H453.354V39.532H451.345C446.712 39.532 443.268 43.14 443.268 47.65C443.268 52.119 446.712 55.768 451.345 55.768H453.354V56.424ZM453.354 62H451.345C443.391 62 437.036 55.563 437.036 47.65C437.036 39.737 443.391 33.3 451.345 33.3H453.354V33.956H451.345C443.719 33.956 437.692 40.065 437.692 47.65C437.692 55.235 443.719 61.344 451.345 61.344H453.354V62ZM466.127 62.492C459.854 62.492 454.77 57.408 454.77 51.135C454.77 44.862 459.854 39.778 466.127 39.778C472.4 39.778 477.484 44.862 477.484 51.135C477.484 57.408 472.4 62.492 466.127 62.492ZM466.127 61.836C472.031 61.836 476.828 57.039 476.828 51.135C476.828 45.231 472.031 40.434 466.127 40.434C460.223 40.434 455.426 45.231 455.426 51.135C455.426 57.039 460.223 61.836 466.127 61.836ZM466.127 56.916C462.929 56.916 460.346 54.333 460.346 51.135C460.346 47.937 462.929 45.354 466.127 45.354C469.325 45.354 471.908 47.937 471.908 51.135C471.908 54.333 469.325 56.916 466.127 56.916ZM466.127 56.26C468.956 56.26 471.252 53.964 471.252 51.135C471.252 48.306 468.956 46.01 466.127 46.01C463.298 46.01 461.002 48.306 461.002 51.135C461.002 53.964 463.298 56.26 466.127 56.26ZM480.424 62V40.27H481.08V45.969C481.982 43.714 483.786 41.869 486 40.885V40.27H486.656V40.639C487.599 40.311 488.665 40.106 489.731 40.106C492.109 40.106 494.282 41.008 495.922 42.484C497.562 41.008 499.735 40.106 502.113 40.106C507.238 40.106 511.42 44.288 511.42 49.413V62H510.764V49.413C510.764 44.657 506.869 40.762 502.113 40.762C499.94 40.762 497.931 41.582 496.414 42.935C497.644 44.206 498.505 45.805 498.874 47.609C499.489 46.461 500.719 45.682 502.113 45.682C504.163 45.682 505.844 47.363 505.844 49.413V62H505.188V49.413C505.188 47.732 503.794 46.338 502.113 46.338C500.432 46.338 499.038 47.732 499.038 49.413V62H498.382V49.413C498.382 47.076 497.439 44.944 495.922 43.386C494.405 44.944 493.462 47.076 493.462 49.413V62H492.806V49.413C492.806 47.732 491.412 46.338 489.731 46.338C488.05 46.338 486.656 47.732 486.656 49.413V62H486V41.623C483.089 43.017 481.08 46.01 481.08 49.413V62H480.424ZM486.656 41.336V47.322C487.312 46.338 488.46 45.682 489.731 45.682C491.125 45.682 492.355 46.461 492.97 47.609C493.339 45.805 494.2 44.206 495.43 42.935C493.913 41.582 491.904 40.762 489.731 40.762C488.665 40.762 487.599 40.967 486.656 41.336ZM520.874 60.155V42.115C518.127 43.796 515.954 47.199 515.954 51.135C515.954 55.071 518.127 58.474 520.874 60.155ZM526.655 62.492C524.81 62.492 523.088 62.041 521.53 61.262V71.02H520.874V60.893C518.578 59.622 516.774 57.285 515.954 54.948V71.02H515.298V40.27H515.954V47.363C516.774 44.985 518.578 42.607 520.874 41.336V40.27H521.53V41.008C523.088 40.229 524.81 39.778 526.655 39.778C532.928 39.778 538.012 44.862 538.012 51.135C538.012 57.408 532.928 62.492 526.655 62.492ZM526.655 56.916C524.441 56.916 522.514 55.645 521.53 53.8V60.524C523.047 61.344 524.81 61.836 526.655 61.836C532.559 61.836 537.356 57.039 537.356 51.135C537.356 45.231 532.559 40.434 526.655 40.434C524.81 40.434 523.047 40.885 521.53 41.705V48.429C522.514 46.625 524.441 45.354 526.655 45.354C529.853 45.354 532.436 47.937 532.436 51.135C532.436 54.333 529.853 56.916 526.655 56.916ZM526.655 46.01C523.785 46.01 521.53 48.306 521.53 51.135C521.53 53.964 523.785 56.26 526.655 56.26C529.484 56.26 531.78 53.964 531.78 51.135C531.78 48.306 529.484 46.01 526.655 46.01ZM551.09 62.492C544.817 62.492 539.733 57.408 539.733 51.135C539.733 44.862 544.817 39.778 551.09 39.778C557.363 39.778 562.447 44.862 562.447 51.135C562.447 57.408 557.363 62.492 551.09 62.492ZM551.09 61.836C556.994 61.836 561.791 57.039 561.791 51.135C561.791 45.231 556.994 40.434 551.09 40.434C545.186 40.434 540.389 45.231 540.389 51.135C540.389 57.039 545.186 61.836 551.09 61.836ZM551.09 56.916C547.892 56.916 545.309 54.333 545.309 51.135C545.309 47.937 547.892 45.354 551.09 45.354C554.288 45.354 556.871 47.937 556.871 51.135C556.871 54.333 554.288 56.916 551.09 56.916ZM551.09 56.26C553.919 56.26 556.215 53.964 556.215 51.135C556.215 48.306 553.919 46.01 551.09 46.01C548.261 46.01 545.965 48.306 545.965 51.135C545.965 53.964 548.261 56.26 551.09 56.26ZM565.386 62V40.27H566.042V46.461C566.944 44.124 568.707 42.197 570.962 41.09V40.27H571.618V40.762C572.766 40.311 573.996 40.065 575.308 40.065C580.761 40.065 585.23 44.534 585.23 49.987V62H584.574V49.987C584.574 44.903 580.392 40.721 575.308 40.721C573.996 40.721 572.766 41.008 571.618 41.5V47.691C572.397 46.461 573.75 45.641 575.308 45.641C577.686 45.641 579.654 47.609 579.654 49.987V62H578.998V49.987C578.998 47.978 577.317 46.297 575.308 46.297C573.299 46.297 571.618 47.978 571.618 49.987V62H570.962V41.828C568.051 43.386 566.042 46.461 566.042 49.987V62H565.386ZM587.86 51.135C587.86 44.862 592.944 39.778 599.217 39.778C604.219 39.778 608.442 42.976 609.959 47.486L596.634 55.563C597.413 56.014 598.274 56.26 599.217 56.26C601.267 56.26 603.03 55.03 603.85 53.308L604.465 53.595C603.563 55.563 601.554 56.916 599.217 56.916C598.028 56.916 596.921 56.547 596.019 55.932L591.591 58.638C593.518 60.606 596.224 61.836 599.217 61.836C603.481 61.836 607.212 59.294 608.934 55.645L609.508 55.932C607.704 59.827 603.768 62.492 599.217 62.492C592.944 62.492 587.86 57.408 587.86 51.135ZM588.516 51.135C588.516 52.324 588.721 53.431 589.049 54.497L593.477 51.791C593.436 51.586 593.436 51.34 593.436 51.135C593.436 47.937 596.019 45.354 599.217 45.354C600.406 45.354 601.554 45.723 602.456 46.338L606.843 43.673C604.916 41.664 602.21 40.434 599.217 40.434C593.313 40.434 588.516 45.231 588.516 51.135ZM589.295 55.112C589.746 56.219 590.361 57.244 591.14 58.146L595.445 55.522C594.543 54.743 593.887 53.677 593.6 52.488L589.295 55.112ZM594.092 51.135V51.422L601.841 46.707C601.062 46.256 600.16 46.01 599.217 46.01C596.388 46.01 594.092 48.306 594.092 51.135ZM594.174 52.16C594.42 53.349 595.117 54.415 596.06 55.153L604.26 50.151C604.014 48.962 603.358 47.896 602.415 47.117L594.174 52.16ZM603.03 46.789C603.932 47.568 604.588 48.593 604.834 49.823L609.18 47.158C608.729 46.051 608.073 45.067 607.335 44.165L603.03 46.789ZM611.952 62V40.27H612.608V46.461C613.51 44.124 615.273 42.197 617.528 41.09V40.27H618.184V40.762C619.332 40.311 620.562 40.065 621.874 40.065C627.327 40.065 631.796 44.534 631.796 49.987V62H631.14V49.987C631.14 44.903 626.958 40.721 621.874 40.721C620.562 40.721 619.332 41.008 618.184 41.5V47.691C618.963 46.461 620.316 45.641 621.874 45.641C624.252 45.641 626.22 47.609 626.22 49.987V62H625.564V49.987C625.564 47.978 623.883 46.297 621.874 46.297C619.865 46.297 618.184 47.978 618.184 49.987V62H617.528V41.828C614.617 43.386 612.608 46.461 612.608 49.987V62H611.952ZM637.305 40.926H634.066V40.27H637.305V33.3H637.961V40.27H642.881V33.3H643.537V40.27H646.776V40.926H643.537V45.846H646.776V46.502H643.537V62H642.881V46.502H637.961V62H637.305V46.502H634.066V45.846H637.305V40.926ZM642.881 40.926H637.961V45.846H642.881V40.926ZM648.765 46.953C648.765 42.976 651.963 39.778 655.94 39.778C658.892 39.778 661.434 41.582 662.541 44.124L661.926 44.411C660.942 42.074 658.605 40.434 655.94 40.434C652.332 40.434 649.421 43.345 649.421 46.953C649.421 50.028 651.512 52.57 654.382 53.308L656.186 53.759C656.883 53.923 657.375 54.579 657.375 55.317C657.375 56.219 656.678 56.916 655.776 56.916C655.079 56.916 654.505 56.506 654.259 55.85L654.874 55.604C654.997 55.973 655.325 56.26 655.776 56.26C656.309 56.26 656.719 55.85 656.719 55.317C656.719 54.866 656.473 54.497 656.022 54.374L654.177 53.923C651.061 53.144 648.765 50.315 648.765 46.953ZM649.175 58.187L649.79 57.9C650.774 60.237 653.07 61.836 655.776 61.836C659.384 61.836 662.295 58.925 662.295 55.317C662.295 52.242 660.204 49.7 657.334 48.962L655.53 48.511C654.792 48.306 654.341 47.691 654.341 46.953C654.341 46.051 655.038 45.354 655.94 45.354C656.637 45.354 657.211 45.805 657.416 46.42L656.842 46.666C656.719 46.297 656.35 46.01 655.94 46.01C655.407 46.01 654.997 46.42 654.997 46.953C654.997 47.404 655.243 47.773 655.694 47.896L657.539 48.347C660.696 49.126 662.951 51.955 662.951 55.317C662.951 59.294 659.753 62.492 655.776 62.492C652.824 62.492 650.282 60.729 649.175 58.187ZM674.076 41.746C674.076 36.826 678.094 32.849 683.178 32.849C687.114 32.849 690.435 35.268 691.706 38.671L691.132 38.917C689.943 35.719 686.827 33.423 683.178 33.464C678.504 33.505 674.691 37.154 674.732 41.746C674.773 45.6 677.397 48.88 681.046 49.7L683.998 50.356C685.474 50.684 686.581 52.037 686.581 53.554C686.581 55.399 685.023 56.875 683.055 56.875C681.374 56.875 679.98 55.768 679.611 54.292L680.226 54.005C680.472 55.276 681.62 56.301 683.055 56.26C684.654 56.219 685.884 55.03 685.925 53.554C685.966 52.324 685.064 51.258 683.793 50.971L680.923 50.356C676.905 49.495 674.076 45.887 674.076 41.746ZM674.486 56.629L675.101 56.342C676.249 59.581 679.365 61.877 683.055 61.836C687.729 61.795 691.542 58.146 691.501 53.554C691.46 49.7 688.836 46.42 685.187 45.6L682.235 44.944C680.759 44.616 679.652 43.263 679.652 41.746C679.652 39.901 681.21 38.425 683.178 38.425C684.859 38.425 686.253 39.491 686.581 40.967L686.007 41.254C685.761 39.983 684.572 38.999 683.178 39.04C681.579 39.081 680.349 40.27 680.308 41.746C680.267 42.976 681.169 44.042 682.44 44.329L685.31 44.944C689.328 45.805 692.157 49.413 692.157 53.554C692.157 58.474 688.139 62.451 683.055 62.451C679.078 62.451 675.757 60.032 674.486 56.629ZM696.963 40.926H693.724V40.27H696.963V33.3H697.619V40.27H702.539V33.3H703.195V40.27H706.434V40.926H703.195V45.846H706.434V46.502H703.195V62H702.539V46.502H697.619V62H696.963V46.502H693.724V45.846H696.963V40.926ZM702.539 40.926H697.619V45.846H702.539V40.926ZM731.424 40.27L717.238 71.02H716.541L719.083 65.526L716.213 59.376L710.842 71.02H710.145L715.885 58.597L707.316 40.27H708.013L716.213 57.859L719.042 51.75L713.712 40.27H714.409L719.411 50.971L724.331 40.27H725.028L719.739 51.709L722.609 57.859L730.727 40.27H731.424ZM719.452 64.747L722.281 58.638L719.411 52.488L716.582 58.638L719.452 64.747ZM734.046 31.25V62H733.39V31.25H734.046ZM739.622 31.25V62H738.966V31.25H739.622ZM742.57 51.135C742.57 44.862 747.654 39.778 753.927 39.778C758.929 39.778 763.152 42.976 764.669 47.486L751.344 55.563C752.123 56.014 752.984 56.26 753.927 56.26C755.977 56.26 757.74 55.03 758.56 53.308L759.175 53.595C758.273 55.563 756.264 56.916 753.927 56.916C752.738 56.916 751.631 56.547 750.729 55.932L746.301 58.638C748.228 60.606 750.934 61.836 753.927 61.836C758.191 61.836 761.922 59.294 763.644 55.645L764.218 55.932C762.414 59.827 758.478 62.492 753.927 62.492C747.654 62.492 742.57 57.408 742.57 51.135ZM743.226 51.135C743.226 52.324 743.431 53.431 743.759 54.497L748.187 51.791C748.146 51.586 748.146 51.34 748.146 51.135C748.146 47.937 750.729 45.354 753.927 45.354C755.116 45.354 756.264 45.723 757.166 46.338L761.553 43.673C759.626 41.664 756.92 40.434 753.927 40.434C748.023 40.434 743.226 45.231 743.226 51.135ZM744.005 55.112C744.456 56.219 745.071 57.244 745.85 58.146L750.155 55.522C749.253 54.743 748.597 53.677 748.31 52.488L744.005 55.112ZM748.802 51.135V51.422L756.551 46.707C755.772 46.256 754.87 46.01 753.927 46.01C751.098 46.01 748.802 48.306 748.802 51.135ZM748.884 52.16C749.13 53.349 749.827 54.415 750.77 55.153L758.97 50.151C758.724 48.962 758.068 47.896 757.125 47.117L748.884 52.16ZM757.74 46.789C758.642 47.568 759.298 48.593 759.544 49.823L763.89 47.158C763.439 46.051 762.783 45.067 762.045 44.165L757.74 46.789ZM765.433 51.135C765.433 44.862 770.517 39.778 776.79 39.778C778.635 39.778 780.357 40.229 781.915 41.008V31.25H782.571V41.377C784.867 42.648 786.63 44.944 787.491 47.322V31.25H788.147V62H787.491V54.907C786.671 57.244 784.867 59.663 782.571 60.934V62H781.915V61.262C780.357 62.041 778.635 62.492 776.79 62.492C770.517 62.492 765.433 57.408 765.433 51.135ZM766.089 51.135C766.089 57.039 770.886 61.836 776.79 61.836C778.635 61.836 780.398 61.385 781.915 60.565V53.841C780.931 55.645 779.004 56.916 776.79 56.916C773.592 56.916 771.009 54.333 771.009 51.135C771.009 47.937 773.592 45.354 776.79 45.354C779.004 45.354 780.931 46.625 781.915 48.47V41.746C780.398 40.926 778.635 40.434 776.79 40.434C770.886 40.434 766.089 45.231 766.089 51.135ZM771.665 51.135C771.665 53.964 773.961 56.26 776.79 56.26C779.66 56.26 781.915 53.964 781.915 51.135C781.915 48.306 779.66 46.01 776.79 46.01C773.961 46.01 771.665 48.306 771.665 51.135ZM782.571 42.115V60.155C785.318 58.474 787.491 55.071 787.491 51.135C787.491 47.199 785.318 43.796 782.571 42.115ZM816.188 56.424H814.179C809.136 56.424 805.446 52.447 805.446 47.65C805.446 42.812 809.136 38.876 814.179 38.876H816.188V39.532H814.179C809.546 39.532 806.102 43.14 806.102 47.65C806.102 52.119 809.546 55.768 814.179 55.768H816.188V56.424ZM816.188 62H814.179C806.225 62 799.87 55.563 799.87 47.65C799.87 39.737 806.225 33.3 814.179 33.3H816.188V33.956H814.179C806.553 33.956 800.526 40.065 800.526 47.65C800.526 55.235 806.553 61.344 814.179 61.344H816.188V62ZM828.961 62.492C822.688 62.492 817.604 57.408 817.604 51.135C817.604 44.862 822.688 39.778 828.961 39.778C835.234 39.778 840.318 44.862 840.318 51.135C840.318 57.408 835.234 62.492 828.961 62.492ZM828.961 61.836C834.865 61.836 839.662 57.039 839.662 51.135C839.662 45.231 834.865 40.434 828.961 40.434C823.057 40.434 818.26 45.231 818.26 51.135C818.26 57.039 823.057 61.836 828.961 61.836ZM828.961 56.916C825.763 56.916 823.18 54.333 823.18 51.135C823.18 47.937 825.763 45.354 828.961 45.354C832.159 45.354 834.742 47.937 834.742 51.135C834.742 54.333 832.159 56.916 828.961 56.916ZM828.961 56.26C831.79 56.26 834.086 53.964 834.086 51.135C834.086 48.306 831.79 46.01 828.961 46.01C826.132 46.01 823.836 48.306 823.836 51.135C823.836 53.964 826.132 56.26 828.961 56.26ZM843.258 62V40.27H843.914V45.969C844.816 43.714 846.62 41.869 848.834 40.885V40.27H849.49V40.639C850.433 40.311 851.499 40.106 852.565 40.106C854.943 40.106 857.116 41.008 858.756 42.484C860.396 41.008 862.569 40.106 864.947 40.106C870.072 40.106 874.254 44.288 874.254 49.413V62H873.598V49.413C873.598 44.657 869.703 40.762 864.947 40.762C862.774 40.762 860.765 41.582 859.248 42.935C860.478 44.206 861.339 45.805 861.708 47.609C862.323 46.461 863.553 45.682 864.947 45.682C866.997 45.682 868.678 47.363 868.678 49.413V62H868.022V49.413C868.022 47.732 866.628 46.338 864.947 46.338C863.266 46.338 861.872 47.732 861.872 49.413V62H861.216V49.413C861.216 47.076 860.273 44.944 858.756 43.386C857.239 44.944 856.296 47.076 856.296 49.413V62H855.64V49.413C855.64 47.732 854.246 46.338 852.565 46.338C850.884 46.338 849.49 47.732 849.49 49.413V62H848.834V41.623C845.923 43.017 843.914 46.01 843.914 49.413V62H843.258ZM849.49 41.336V47.322C850.146 46.338 851.294 45.682 852.565 45.682C853.959 45.682 855.189 46.461 855.804 47.609C856.173 45.805 857.034 44.206 858.264 42.935C856.747 41.582 854.738 40.762 852.565 40.762C851.499 40.762 850.433 40.967 849.49 41.336ZM883.708 60.155V42.115C880.961 43.796 878.788 47.199 878.788 51.135C878.788 55.071 880.961 58.474 883.708 60.155ZM889.489 62.492C887.644 62.492 885.922 62.041 884.364 61.262V71.02H883.708V60.893C881.412 59.622 879.608 57.285 878.788 54.948V71.02H878.132V40.27H878.788V47.363C879.608 44.985 881.412 42.607 883.708 41.336V40.27H884.364V41.008C885.922 40.229 887.644 39.778 889.489 39.778C895.762 39.778 900.846 44.862 900.846 51.135C900.846 57.408 895.762 62.492 889.489 62.492ZM889.489 56.916C887.275 56.916 885.348 55.645 884.364 53.8V60.524C885.881 61.344 887.644 61.836 889.489 61.836C895.393 61.836 900.19 57.039 900.19 51.135C900.19 45.231 895.393 40.434 889.489 40.434C887.644 40.434 885.881 40.885 884.364 41.705V48.429C885.348 46.625 887.275 45.354 889.489 45.354C892.687 45.354 895.27 47.937 895.27 51.135C895.27 54.333 892.687 56.916 889.489 56.916ZM889.489 46.01C886.619 46.01 884.364 48.306 884.364 51.135C884.364 53.964 886.619 56.26 889.489 56.26C892.318 56.26 894.614 53.964 894.614 51.135C894.614 48.306 892.318 46.01 889.489 46.01ZM913.924 62.492C907.651 62.492 902.567 57.408 902.567 51.135C902.567 44.862 907.651 39.778 913.924 39.778C920.197 39.778 925.281 44.862 925.281 51.135C925.281 57.408 920.197 62.492 913.924 62.492ZM913.924 61.836C919.828 61.836 924.625 57.039 924.625 51.135C924.625 45.231 919.828 40.434 913.924 40.434C908.02 40.434 903.223 45.231 903.223 51.135C903.223 57.039 908.02 61.836 913.924 61.836ZM913.924 56.916C910.726 56.916 908.143 54.333 908.143 51.135C908.143 47.937 910.726 45.354 913.924 45.354C917.122 45.354 919.705 47.937 919.705 51.135C919.705 54.333 917.122 56.916 913.924 56.916ZM913.924 56.26C916.753 56.26 919.049 53.964 919.049 51.135C919.049 48.306 916.753 46.01 913.924 46.01C911.095 46.01 908.799 48.306 908.799 51.135C908.799 53.964 911.095 56.26 913.924 56.26ZM928.22 62V40.27H928.876V46.461C929.778 44.124 931.541 42.197 933.796 41.09V40.27H934.452V40.762C935.6 40.311 936.83 40.065 938.142 40.065C943.595 40.065 948.064 44.534 948.064 49.987V62H947.408V49.987C947.408 44.903 943.226 40.721 938.142 40.721C936.83 40.721 935.6 41.008 934.452 41.5V47.691C935.231 46.461 936.584 45.641 938.142 45.641C940.52 45.641 942.488 47.609 942.488 49.987V62H941.832V49.987C941.832 47.978 940.151 46.297 938.142 46.297C936.133 46.297 934.452 47.978 934.452 49.987V62H933.796V41.828C930.885 43.386 928.876 46.461 928.876 49.987V62H928.22ZM950.694 51.135C950.694 44.862 955.778 39.778 962.051 39.778C967.053 39.778 971.276 42.976 972.793 47.486L959.468 55.563C960.247 56.014 961.108 56.26 962.051 56.26C964.101 56.26 965.864 55.03 966.684 53.308L967.299 53.595C966.397 55.563 964.388 56.916 962.051 56.916C960.862 56.916 959.755 56.547 958.853 55.932L954.425 58.638C956.352 60.606 959.058 61.836 962.051 61.836C966.315 61.836 970.046 59.294 971.768 55.645L972.342 55.932C970.538 59.827 966.602 62.492 962.051 62.492C955.778 62.492 950.694 57.408 950.694 51.135ZM951.35 51.135C951.35 52.324 951.555 53.431 951.883 54.497L956.311 51.791C956.27 51.586 956.27 51.34 956.27 51.135C956.27 47.937 958.853 45.354 962.051 45.354C963.24 45.354 964.388 45.723 965.29 46.338L969.677 43.673C967.75 41.664 965.044 40.434 962.051 40.434C956.147 40.434 951.35 45.231 951.35 51.135ZM952.129 55.112C952.58 56.219 953.195 57.244 953.974 58.146L958.279 55.522C957.377 54.743 956.721 53.677 956.434 52.488L952.129 55.112ZM956.926 51.135V51.422L964.675 46.707C963.896 46.256 962.994 46.01 962.051 46.01C959.222 46.01 956.926 48.306 956.926 51.135ZM957.008 52.16C957.254 53.349 957.951 54.415 958.894 55.153L967.094 50.151C966.848 48.962 966.192 47.896 965.249 47.117L957.008 52.16ZM965.864 46.789C966.766 47.568 967.422 48.593 967.668 49.823L972.014 47.158C971.563 46.051 970.907 45.067 970.169 44.165L965.864 46.789ZM974.786 62V40.27H975.442V46.461C976.344 44.124 978.107 42.197 980.362 41.09V40.27H981.018V40.762C982.166 40.311 983.396 40.065 984.708 40.065C990.161 40.065 994.63 44.534 994.63 49.987V62H993.974V49.987C993.974 44.903 989.792 40.721 984.708 40.721C983.396 40.721 982.166 41.008 981.018 41.5V47.691C981.797 46.461 983.15 45.641 984.708 45.641C987.086 45.641 989.054 47.609 989.054 49.987V62H988.398V49.987C988.398 47.978 986.717 46.297 984.708 46.297C982.699 46.297 981.018 47.978 981.018 49.987V62H980.362V41.828C977.451 43.386 975.442 46.461 975.442 49.987V62H974.786ZM1000.14 40.926H996.9V40.27H1000.14V33.3H1000.79V40.27H1005.71V33.3H1006.37V40.27H1009.61V40.926H1006.37V45.846H1009.61V46.502H1006.37V62H1005.71V46.502H1000.79V62H1000.14V46.502H996.9V45.846H1000.14V40.926ZM1005.71 40.926H1000.79V45.846H1005.71V40.926ZM1011.6 46.953C1011.6 42.976 1014.8 39.778 1018.77 39.778C1021.73 39.778 1024.27 41.582 1025.37 44.124L1024.76 44.411C1023.78 42.074 1021.44 40.434 1018.77 40.434C1015.17 40.434 1012.25 43.345 1012.25 46.953C1012.25 50.028 1014.35 52.57 1017.22 53.308L1019.02 53.759C1019.72 53.923 1020.21 54.579 1020.21 55.317C1020.21 56.219 1019.51 56.916 1018.61 56.916C1017.91 56.916 1017.34 56.506 1017.09 55.85L1017.71 55.604C1017.83 55.973 1018.16 56.26 1018.61 56.26C1019.14 56.26 1019.55 55.85 1019.55 55.317C1019.55 54.866 1019.31 54.497 1018.86 54.374L1017.01 53.923C1013.89 53.144 1011.6 50.315 1011.6 46.953ZM1012.01 58.187L1012.62 57.9C1013.61 60.237 1015.9 61.836 1018.61 61.836C1022.22 61.836 1025.13 58.925 1025.13 55.317C1025.13 52.242 1023.04 49.7 1020.17 48.962L1018.36 48.511C1017.63 48.306 1017.17 47.691 1017.17 46.953C1017.17 46.051 1017.87 45.354 1018.77 45.354C1019.47 45.354 1020.04 45.805 1020.25 46.42L1019.68 46.666C1019.55 46.297 1019.18 46.01 1018.77 46.01C1018.24 46.01 1017.83 46.42 1017.83 46.953C1017.83 47.404 1018.08 47.773 1018.53 47.896L1020.37 48.347C1023.53 49.126 1025.78 51.955 1025.78 55.317C1025.78 59.294 1022.59 62.492 1018.61 62.492C1015.66 62.492 1013.12 60.729 1012.01 58.187ZM1036.91 41.746C1036.91 36.826 1040.93 32.849 1046.01 32.849C1049.95 32.849 1053.27 35.268 1054.54 38.671L1053.97 38.917C1052.78 35.719 1049.66 33.423 1046.01 33.464C1041.34 33.505 1037.53 37.154 1037.57 41.746C1037.61 45.6 1040.23 48.88 1043.88 49.7L1046.83 50.356C1048.31 50.684 1049.42 52.037 1049.42 53.554C1049.42 55.399 1047.86 56.875 1045.89 56.875C1044.21 56.875 1042.81 55.768 1042.45 54.292L1043.06 54.005C1043.31 55.276 1044.45 56.301 1045.89 56.26C1047.49 56.219 1048.72 55.03 1048.76 53.554C1048.8 52.324 1047.9 51.258 1046.63 50.971L1043.76 50.356C1039.74 49.495 1036.91 45.887 1036.91 41.746ZM1037.32 56.629L1037.94 56.342C1039.08 59.581 1042.2 61.877 1045.89 61.836C1050.56 61.795 1054.38 58.146 1054.34 53.554C1054.29 49.7 1051.67 46.42 1048.02 45.6L1045.07 44.944C1043.59 44.616 1042.49 43.263 1042.49 41.746C1042.49 39.901 1044.04 38.425 1046.01 38.425C1047.69 38.425 1049.09 39.491 1049.42 40.967L1048.84 41.254C1048.6 39.983 1047.41 38.999 1046.01 39.04C1044.41 39.081 1043.18 40.27 1043.14 41.746C1043.1 42.976 1044 44.042 1045.27 44.329L1048.14 44.944C1052.16 45.805 1054.99 49.413 1054.99 53.554C1054.99 58.474 1050.97 62.451 1045.89 62.451C1041.91 62.451 1038.59 60.032 1037.32 56.629ZM1059.8 40.926H1056.56V40.27H1059.8V33.3H1060.45V40.27H1065.37V33.3H1066.03V40.27H1069.27V40.926H1066.03V45.846H1069.27V46.502H1066.03V62H1065.37V46.502H1060.45V62H1059.8V46.502H1056.56V45.846H1059.8V40.926ZM1065.37 40.926H1060.45V45.846H1065.37V40.926ZM1094.26 40.27L1080.07 71.02H1079.37L1081.92 65.526L1079.05 59.376L1073.68 71.02H1072.98L1078.72 58.597L1070.15 40.27H1070.85L1079.05 57.859L1081.88 51.75L1076.55 40.27H1077.24L1082.24 50.971L1087.16 40.27H1087.86L1082.57 51.709L1085.44 57.859L1093.56 40.27H1094.26ZM1082.29 64.747L1085.11 58.638L1082.24 52.488L1079.42 58.638L1082.29 64.747ZM1096.88 31.25V62H1096.22V31.25H1096.88ZM1102.46 31.25V62H1101.8V31.25H1102.46ZM1105.4 51.135C1105.4 44.862 1110.49 39.778 1116.76 39.778C1121.76 39.778 1125.99 42.976 1127.5 47.486L1114.18 55.563C1114.96 56.014 1115.82 56.26 1116.76 56.26C1118.81 56.26 1120.57 55.03 1121.39 53.308L1122.01 53.595C1121.11 55.563 1119.1 56.916 1116.76 56.916C1115.57 56.916 1114.47 56.547 1113.56 55.932L1109.14 58.638C1111.06 60.606 1113.77 61.836 1116.76 61.836C1121.03 61.836 1124.76 59.294 1126.48 55.645L1127.05 55.932C1125.25 59.827 1121.31 62.492 1116.76 62.492C1110.49 62.492 1105.4 57.408 1105.4 51.135ZM1106.06 51.135C1106.06 52.324 1106.27 53.431 1106.59 54.497L1111.02 51.791C1110.98 51.586 1110.98 51.34 1110.98 51.135C1110.98 47.937 1113.56 45.354 1116.76 45.354C1117.95 45.354 1119.1 45.723 1120 46.338L1124.39 43.673C1122.46 41.664 1119.75 40.434 1116.76 40.434C1110.86 40.434 1106.06 45.231 1106.06 51.135ZM1106.84 55.112C1107.29 56.219 1107.91 57.244 1108.68 58.146L1112.99 55.522C1112.09 54.743 1111.43 53.677 1111.14 52.488L1106.84 55.112ZM1111.64 51.135V51.422L1119.39 46.707C1118.61 46.256 1117.7 46.01 1116.76 46.01C1113.93 46.01 1111.64 48.306 1111.64 51.135ZM1111.72 52.16C1111.96 53.349 1112.66 54.415 1113.6 55.153L1121.8 50.151C1121.56 48.962 1120.9 47.896 1119.96 47.117L1111.72 52.16ZM1120.57 46.789C1121.48 47.568 1122.13 48.593 1122.38 49.823L1126.72 47.158C1126.27 46.051 1125.62 45.067 1124.88 44.165L1120.57 46.789ZM1128.27 51.135C1128.27 44.862 1133.35 39.778 1139.62 39.778C1141.47 39.778 1143.19 40.229 1144.75 41.008V31.25H1145.4V41.377C1147.7 42.648 1149.46 44.944 1150.32 47.322V31.25H1150.98V62H1150.32V54.907C1149.5 57.244 1147.7 59.663 1145.4 60.934V62H1144.75V61.262C1143.19 62.041 1141.47 62.492 1139.62 62.492C1133.35 62.492 1128.27 57.408 1128.27 51.135ZM1128.92 51.135C1128.92 57.039 1133.72 61.836 1139.62 61.836C1141.47 61.836 1143.23 61.385 1144.75 60.565V53.841C1143.76 55.645 1141.84 56.916 1139.62 56.916C1136.43 56.916 1133.84 54.333 1133.84 51.135C1133.84 47.937 1136.43 45.354 1139.62 45.354C1141.84 45.354 1143.76 46.625 1144.75 48.47V41.746C1143.23 40.926 1141.47 40.434 1139.62 40.434C1133.72 40.434 1128.92 45.231 1128.92 51.135ZM1134.5 51.135C1134.5 53.964 1136.79 56.26 1139.62 56.26C1142.49 56.26 1144.75 53.964 1144.75 51.135C1144.75 48.306 1142.49 46.01 1139.62 46.01C1136.79 46.01 1134.5 48.306 1134.5 51.135ZM1145.4 42.115V60.155C1148.15 58.474 1150.32 55.071 1150.32 51.135C1150.32 47.199 1148.15 43.796 1145.4 42.115ZM1179.02 56.424H1177.01C1171.97 56.424 1168.28 52.447 1168.28 47.65C1168.28 42.812 1171.97 38.876 1177.01 38.876H1179.02V39.532H1177.01C1172.38 39.532 1168.94 43.14 1168.94 47.65C1168.94 52.119 1172.38 55.768 1177.01 55.768H1179.02V56.424ZM1179.02 62H1177.01C1169.06 62 1162.7 55.563 1162.7 47.65C1162.7 39.737 1169.06 33.3 1177.01 33.3H1179.02V33.956H1177.01C1169.39 33.956 1163.36 40.065 1163.36 47.65C1163.36 55.235 1169.39 61.344 1177.01 61.344H1179.02V62ZM1191.79 62.492C1185.52 62.492 1180.44 57.408 1180.44 51.135C1180.44 44.862 1185.52 39.778 1191.79 39.778C1198.07 39.778 1203.15 44.862 1203.15 51.135C1203.15 57.408 1198.07 62.492 1191.79 62.492ZM1191.79 61.836C1197.7 61.836 1202.5 57.039 1202.5 51.135C1202.5 45.231 1197.7 40.434 1191.79 40.434C1185.89 40.434 1181.09 45.231 1181.09 51.135C1181.09 57.039 1185.89 61.836 1191.79 61.836ZM1191.79 56.916C1188.6 56.916 1186.01 54.333 1186.01 51.135C1186.01 47.937 1188.6 45.354 1191.79 45.354C1194.99 45.354 1197.58 47.937 1197.58 51.135C1197.58 54.333 1194.99 56.916 1191.79 56.916ZM1191.79 56.26C1194.62 56.26 1196.92 53.964 1196.92 51.135C1196.92 48.306 1194.62 46.01 1191.79 46.01C1188.97 46.01 1186.67 48.306 1186.67 51.135C1186.67 53.964 1188.97 56.26 1191.79 56.26ZM1206.09 62V40.27H1206.75V45.969C1207.65 43.714 1209.45 41.869 1211.67 40.885V40.27H1212.32V40.639C1213.27 40.311 1214.33 40.106 1215.4 40.106C1217.78 40.106 1219.95 41.008 1221.59 42.484C1223.23 41.008 1225.4 40.106 1227.78 40.106C1232.91 40.106 1237.09 44.288 1237.09 49.413V62H1236.43V49.413C1236.43 44.657 1232.54 40.762 1227.78 40.762C1225.61 40.762 1223.6 41.582 1222.08 42.935C1223.31 44.206 1224.17 45.805 1224.54 47.609C1225.16 46.461 1226.39 45.682 1227.78 45.682C1229.83 45.682 1231.51 47.363 1231.51 49.413V62H1230.86V49.413C1230.86 47.732 1229.46 46.338 1227.78 46.338C1226.1 46.338 1224.71 47.732 1224.71 49.413V62H1224.05V49.413C1224.05 47.076 1223.11 44.944 1221.59 43.386C1220.07 44.944 1219.13 47.076 1219.13 49.413V62H1218.47V49.413C1218.47 47.732 1217.08 46.338 1215.4 46.338C1213.72 46.338 1212.32 47.732 1212.32 49.413V62H1211.67V41.623C1208.76 43.017 1206.75 46.01 1206.75 49.413V62H1206.09ZM1212.32 41.336V47.322C1212.98 46.338 1214.13 45.682 1215.4 45.682C1216.79 45.682 1218.02 46.461 1218.64 47.609C1219.01 45.805 1219.87 44.206 1221.1 42.935C1219.58 41.582 1217.57 40.762 1215.4 40.762C1214.33 40.762 1213.27 40.967 1212.32 41.336ZM1246.54 60.155V42.115C1243.79 43.796 1241.62 47.199 1241.62 51.135C1241.62 55.071 1243.79 58.474 1246.54 60.155ZM1252.32 62.492C1250.48 62.492 1248.76 62.041 1247.2 61.262V71.02H1246.54V60.893C1244.25 59.622 1242.44 57.285 1241.62 54.948V71.02H1240.97V40.27H1241.62V47.363C1242.44 44.985 1244.25 42.607 1246.54 41.336V40.27H1247.2V41.008C1248.76 40.229 1250.48 39.778 1252.32 39.778C1258.6 39.778 1263.68 44.862 1263.68 51.135C1263.68 57.408 1258.6 62.492 1252.32 62.492ZM1252.32 56.916C1250.11 56.916 1248.18 55.645 1247.2 53.8V60.524C1248.71 61.344 1250.48 61.836 1252.32 61.836C1258.23 61.836 1263.02 57.039 1263.02 51.135C1263.02 45.231 1258.23 40.434 1252.32 40.434C1250.48 40.434 1248.71 40.885 1247.2 41.705V48.429C1248.18 46.625 1250.11 45.354 1252.32 45.354C1255.52 45.354 1258.1 47.937 1258.1 51.135C1258.1 54.333 1255.52 56.916 1252.32 56.916ZM1252.32 46.01C1249.45 46.01 1247.2 48.306 1247.2 51.135C1247.2 53.964 1249.45 56.26 1252.32 56.26C1255.15 56.26 1257.45 53.964 1257.45 51.135C1257.45 48.306 1255.15 46.01 1252.32 46.01ZM1276.76 62.492C1270.48 62.492 1265.4 57.408 1265.4 51.135C1265.4 44.862 1270.48 39.778 1276.76 39.778C1283.03 39.778 1288.11 44.862 1288.11 51.135C1288.11 57.408 1283.03 62.492 1276.76 62.492ZM1276.76 61.836C1282.66 61.836 1287.46 57.039 1287.46 51.135C1287.46 45.231 1282.66 40.434 1276.76 40.434C1270.85 40.434 1266.06 45.231 1266.06 51.135C1266.06 57.039 1270.85 61.836 1276.76 61.836ZM1276.76 56.916C1273.56 56.916 1270.98 54.333 1270.98 51.135C1270.98 47.937 1273.56 45.354 1276.76 45.354C1279.96 45.354 1282.54 47.937 1282.54 51.135C1282.54 54.333 1279.96 56.916 1276.76 56.916ZM1276.76 56.26C1279.59 56.26 1281.88 53.964 1281.88 51.135C1281.88 48.306 1279.59 46.01 1276.76 46.01C1273.93 46.01 1271.63 48.306 1271.63 51.135C1271.63 53.964 1273.93 56.26 1276.76 56.26ZM1291.05 62V40.27H1291.71V46.461C1292.61 44.124 1294.38 42.197 1296.63 41.09V40.27H1297.29V40.762C1298.43 40.311 1299.66 40.065 1300.98 40.065C1306.43 40.065 1310.9 44.534 1310.9 49.987V62H1310.24V49.987C1310.24 44.903 1306.06 40.721 1300.98 40.721C1299.66 40.721 1298.43 41.008 1297.29 41.5V47.691C1298.07 46.461 1299.42 45.641 1300.98 45.641C1303.35 45.641 1305.32 47.609 1305.32 49.987V62H1304.67V49.987C1304.67 47.978 1302.99 46.297 1300.98 46.297C1298.97 46.297 1297.29 47.978 1297.29 49.987V62H1296.63V41.828C1293.72 43.386 1291.71 46.461 1291.71 49.987V62H1291.05ZM1313.53 51.135C1313.53 44.862 1318.61 39.778 1324.88 39.778C1329.89 39.778 1334.11 42.976 1335.63 47.486L1322.3 55.563C1323.08 56.014 1323.94 56.26 1324.88 56.26C1326.93 56.26 1328.7 55.03 1329.52 53.308L1330.13 53.595C1329.23 55.563 1327.22 56.916 1324.88 56.916C1323.7 56.916 1322.59 56.547 1321.69 55.932L1317.26 58.638C1319.19 60.606 1321.89 61.836 1324.88 61.836C1329.15 61.836 1332.88 59.294 1334.6 55.645L1335.18 55.932C1333.37 59.827 1329.44 62.492 1324.88 62.492C1318.61 62.492 1313.53 57.408 1313.53 51.135ZM1314.18 51.135C1314.18 52.324 1314.39 53.431 1314.72 54.497L1319.14 51.791C1319.1 51.586 1319.1 51.34 1319.1 51.135C1319.1 47.937 1321.69 45.354 1324.88 45.354C1326.07 45.354 1327.22 45.723 1328.12 46.338L1332.51 43.673C1330.58 41.664 1327.88 40.434 1324.88 40.434C1318.98 40.434 1314.18 45.231 1314.18 51.135ZM1314.96 55.112C1315.41 56.219 1316.03 57.244 1316.81 58.146L1321.11 55.522C1320.21 54.743 1319.55 53.677 1319.27 52.488L1314.96 55.112ZM1319.76 51.135V51.422L1327.51 46.707C1326.73 46.256 1325.83 46.01 1324.88 46.01C1322.06 46.01 1319.76 48.306 1319.76 51.135ZM1319.84 52.16C1320.09 53.349 1320.78 54.415 1321.73 55.153L1329.93 50.151C1329.68 48.962 1329.03 47.896 1328.08 47.117L1319.84 52.16ZM1328.7 46.789C1329.6 47.568 1330.26 48.593 1330.5 49.823L1334.85 47.158C1334.4 46.051 1333.74 45.067 1333 44.165L1328.7 46.789ZM1337.62 62V40.27H1338.28V46.461C1339.18 44.124 1340.94 42.197 1343.2 41.09V40.27H1343.85V40.762C1345 40.311 1346.23 40.065 1347.54 40.065C1352.99 40.065 1357.46 44.534 1357.46 49.987V62H1356.81V49.987C1356.81 44.903 1352.63 40.721 1347.54 40.721C1346.23 40.721 1345 41.008 1343.85 41.5V47.691C1344.63 46.461 1345.98 45.641 1347.54 45.641C1349.92 45.641 1351.89 47.609 1351.89 49.987V62H1351.23V49.987C1351.23 47.978 1349.55 46.297 1347.54 46.297C1345.53 46.297 1343.85 47.978 1343.85 49.987V62H1343.2V41.828C1340.28 43.386 1338.28 46.461 1338.28 49.987V62H1337.62ZM1362.97 40.926H1359.73V40.27H1362.97V33.3H1363.63V40.27H1368.55V33.3H1369.2V40.27H1372.44V40.926H1369.2V45.846H1372.44V46.502H1369.2V62H1368.55V46.502H1363.63V62H1362.97V46.502H1359.73V45.846H1362.97V40.926ZM1368.55 40.926H1363.63V45.846H1368.55V40.926ZM1374.43 46.953C1374.43 42.976 1377.63 39.778 1381.61 39.778C1384.56 39.778 1387.1 41.582 1388.21 44.124L1387.59 44.411C1386.61 42.074 1384.27 40.434 1381.61 40.434C1378 40.434 1375.09 43.345 1375.09 46.953C1375.09 50.028 1377.18 52.57 1380.05 53.308L1381.85 53.759C1382.55 53.923 1383.04 54.579 1383.04 55.317C1383.04 56.219 1382.35 56.916 1381.44 56.916C1380.75 56.916 1380.17 56.506 1379.93 55.85L1380.54 55.604C1380.66 55.973 1380.99 56.26 1381.44 56.26C1381.98 56.26 1382.39 55.85 1382.39 55.317C1382.39 54.866 1382.14 54.497 1381.69 54.374L1379.84 53.923C1376.73 53.144 1374.43 50.315 1374.43 46.953ZM1374.84 58.187L1375.46 57.9C1376.44 60.237 1378.74 61.836 1381.44 61.836C1385.05 61.836 1387.96 58.925 1387.96 55.317C1387.96 52.242 1385.87 49.7 1383 48.962L1381.2 48.511C1380.46 48.306 1380.01 47.691 1380.01 46.953C1380.01 46.051 1380.71 45.354 1381.61 45.354C1382.3 45.354 1382.88 45.805 1383.08 46.42L1382.51 46.666C1382.39 46.297 1382.02 46.01 1381.61 46.01C1381.07 46.01 1380.66 46.42 1380.66 46.953C1380.66 47.404 1380.91 47.773 1381.36 47.896L1383.21 48.347C1386.36 49.126 1388.62 51.955 1388.62 55.317C1388.62 59.294 1385.42 62.492 1381.44 62.492C1378.49 62.492 1375.95 60.729 1374.84 58.187ZM1399.74 41.746C1399.74 36.826 1403.76 32.849 1408.85 32.849C1412.78 32.849 1416.1 35.268 1417.37 38.671L1416.8 38.917C1415.61 35.719 1412.5 33.423 1408.85 33.464C1404.17 33.505 1400.36 37.154 1400.4 41.746C1400.44 45.6 1403.07 48.88 1406.71 49.7L1409.67 50.356C1411.14 50.684 1412.25 52.037 1412.25 53.554C1412.25 55.399 1410.69 56.875 1408.72 56.875C1407.04 56.875 1405.65 55.768 1405.28 54.292L1405.89 54.005C1406.14 55.276 1407.29 56.301 1408.72 56.26C1410.32 56.219 1411.55 55.03 1411.59 53.554C1411.63 52.324 1410.73 51.258 1409.46 50.971L1406.59 50.356C1402.57 49.495 1399.74 45.887 1399.74 41.746ZM1400.15 56.629L1400.77 56.342C1401.92 59.581 1405.03 61.877 1408.72 61.836C1413.4 61.795 1417.21 58.146 1417.17 53.554C1417.13 49.7 1414.5 46.42 1410.86 45.6L1407.9 44.944C1406.43 44.616 1405.32 43.263 1405.32 41.746C1405.32 39.901 1406.88 38.425 1408.85 38.425C1410.53 38.425 1411.92 39.491 1412.25 40.967L1411.68 41.254C1411.43 39.983 1410.24 38.999 1408.85 39.04C1407.25 39.081 1406.02 40.27 1405.98 41.746C1405.94 42.976 1406.84 44.042 1408.11 44.329L1410.98 44.944C1415 45.805 1417.83 49.413 1417.83 53.554C1417.83 58.474 1413.81 62.451 1408.72 62.451C1404.75 62.451 1401.43 60.032 1400.15 56.629ZM1422.63 40.926H1419.39V40.27H1422.63V33.3H1423.29V40.27H1428.21V33.3H1428.86V40.27H1432.1V40.926H1428.86V45.846H1432.1V46.502H1428.86V62H1428.21V46.502H1423.29V62H1422.63V46.502H1419.39V45.846H1422.63V40.926ZM1428.21 40.926H1423.29V45.846H1428.21V40.926ZM1457.09 40.27L1442.91 71.02H1442.21L1444.75 65.526L1441.88 59.376L1436.51 71.02H1435.81L1441.55 58.597L1432.98 40.27H1433.68L1441.88 57.859L1444.71 51.75L1439.38 40.27H1440.08L1445.08 50.971L1450 40.27H1450.7L1445.41 51.709L1448.28 57.859L1456.39 40.27H1457.09ZM1445.12 64.747L1447.95 58.638L1445.08 52.488L1442.25 58.638L1445.12 64.747ZM1459.71 31.25V62H1459.06V31.25H1459.71ZM1465.29 31.25V62H1464.63V31.25H1465.29ZM1468.24 51.135C1468.24 44.862 1473.32 39.778 1479.6 39.778C1484.6 39.778 1488.82 42.976 1490.34 47.486L1477.01 55.563C1477.79 56.014 1478.65 56.26 1479.6 56.26C1481.65 56.26 1483.41 55.03 1484.23 53.308L1484.84 53.595C1483.94 55.563 1481.93 56.916 1479.6 56.916C1478.41 56.916 1477.3 56.547 1476.4 55.932L1471.97 58.638C1473.9 60.606 1476.6 61.836 1479.6 61.836C1483.86 61.836 1487.59 59.294 1489.31 55.645L1489.89 55.932C1488.08 59.827 1484.15 62.492 1479.6 62.492C1473.32 62.492 1468.24 57.408 1468.24 51.135ZM1468.89 51.135C1468.89 52.324 1469.1 53.431 1469.43 54.497L1473.86 51.791C1473.81 51.586 1473.81 51.34 1473.81 51.135C1473.81 47.937 1476.4 45.354 1479.6 45.354C1480.78 45.354 1481.93 45.723 1482.83 46.338L1487.22 43.673C1485.29 41.664 1482.59 40.434 1479.6 40.434C1473.69 40.434 1468.89 45.231 1468.89 51.135ZM1469.67 55.112C1470.12 56.219 1470.74 57.244 1471.52 58.146L1475.82 55.522C1474.92 54.743 1474.27 53.677 1473.98 52.488L1469.67 55.112ZM1474.47 51.135V51.422L1482.22 46.707C1481.44 46.256 1480.54 46.01 1479.6 46.01C1476.77 46.01 1474.47 48.306 1474.47 51.135ZM1474.55 52.16C1474.8 53.349 1475.5 54.415 1476.44 55.153L1484.64 50.151C1484.39 48.962 1483.74 47.896 1482.79 47.117L1474.55 52.16ZM1483.41 46.789C1484.31 47.568 1484.97 48.593 1485.21 49.823L1489.56 47.158C1489.11 46.051 1488.45 45.067 1487.71 44.165L1483.41 46.789ZM1491.1 51.135C1491.1 44.862 1496.18 39.778 1502.46 39.778C1504.3 39.778 1506.02 40.229 1507.58 41.008V31.25H1508.24V41.377C1510.53 42.648 1512.3 44.944 1513.16 47.322V31.25H1513.81V62H1513.16V54.907C1512.34 57.244 1510.53 59.663 1508.24 60.934V62H1507.58V61.262C1506.02 62.041 1504.3 62.492 1502.46 62.492C1496.18 62.492 1491.1 57.408 1491.1 51.135ZM1491.76 51.135C1491.76 57.039 1496.55 61.836 1502.46 61.836C1504.3 61.836 1506.07 61.385 1507.58 60.565V53.841C1506.6 55.645 1504.67 56.916 1502.46 56.916C1499.26 56.916 1496.68 54.333 1496.68 51.135C1496.68 47.937 1499.26 45.354 1502.46 45.354C1504.67 45.354 1506.6 46.625 1507.58 48.47V41.746C1506.07 40.926 1504.3 40.434 1502.46 40.434C1496.55 40.434 1491.76 45.231 1491.76 51.135ZM1497.33 51.135C1497.33 53.964 1499.63 56.26 1502.46 56.26C1505.33 56.26 1507.58 53.964 1507.58 51.135C1507.58 48.306 1505.33 46.01 1502.46 46.01C1499.63 46.01 1497.33 48.306 1497.33 51.135ZM1508.24 42.115V60.155C1510.99 58.474 1513.16 55.071 1513.16 51.135C1513.16 47.199 1510.99 43.796 1508.24 42.115ZM1541.86 56.424H1539.85C1534.8 56.424 1531.11 52.447 1531.11 47.65C1531.11 42.812 1534.8 38.876 1539.85 38.876H1541.86V39.532H1539.85C1535.21 39.532 1531.77 43.14 1531.77 47.65C1531.77 52.119 1535.21 55.768 1539.85 55.768H1541.86V56.424ZM1541.86 62H1539.85C1531.89 62 1525.54 55.563 1525.54 47.65C1525.54 39.737 1531.89 33.3 1539.85 33.3H1541.86V33.956H1539.85C1532.22 33.956 1526.19 40.065 1526.19 47.65C1526.19 55.235 1532.22 61.344 1539.85 61.344H1541.86V62ZM1554.63 62.492C1548.36 62.492 1543.27 57.408 1543.27 51.135C1543.27 44.862 1548.36 39.778 1554.63 39.778C1560.9 39.778 1565.99 44.862 1565.99 51.135C1565.99 57.408 1560.9 62.492 1554.63 62.492ZM1554.63 61.836C1560.53 61.836 1565.33 57.039 1565.33 51.135C1565.33 45.231 1560.53 40.434 1554.63 40.434C1548.72 40.434 1543.93 45.231 1543.93 51.135C1543.93 57.039 1548.72 61.836 1554.63 61.836ZM1554.63 56.916C1551.43 56.916 1548.85 54.333 1548.85 51.135C1548.85 47.937 1551.43 45.354 1554.63 45.354C1557.83 45.354 1560.41 47.937 1560.41 51.135C1560.41 54.333 1557.83 56.916 1554.63 56.916ZM1554.63 56.26C1557.46 56.26 1559.75 53.964 1559.75 51.135C1559.75 48.306 1557.46 46.01 1554.63 46.01C1551.8 46.01 1549.5 48.306 1549.5 51.135C1549.5 53.964 1551.8 56.26 1554.63 56.26ZM1568.93 62V40.27H1569.58V45.969C1570.48 43.714 1572.29 41.869 1574.5 40.885V40.27H1575.16V40.639C1576.1 40.311 1577.17 40.106 1578.23 40.106C1580.61 40.106 1582.78 41.008 1584.42 42.484C1586.06 41.008 1588.24 40.106 1590.61 40.106C1595.74 40.106 1599.92 44.288 1599.92 49.413V62H1599.27V49.413C1599.27 44.657 1595.37 40.762 1590.61 40.762C1588.44 40.762 1586.43 41.582 1584.92 42.935C1586.15 44.206 1587.01 45.805 1587.38 47.609C1587.99 46.461 1589.22 45.682 1590.61 45.682C1592.66 45.682 1594.35 47.363 1594.35 49.413V62H1593.69V49.413C1593.69 47.732 1592.3 46.338 1590.61 46.338C1588.93 46.338 1587.54 47.732 1587.54 49.413V62H1586.88V49.413C1586.88 47.076 1585.94 44.944 1584.42 43.386C1582.91 44.944 1581.96 47.076 1581.96 49.413V62H1581.31V49.413C1581.31 47.732 1579.91 46.338 1578.23 46.338C1576.55 46.338 1575.16 47.732 1575.16 49.413V62H1574.5V41.623C1571.59 43.017 1569.58 46.01 1569.58 49.413V62H1568.93ZM1575.16 41.336V47.322C1575.81 46.338 1576.96 45.682 1578.23 45.682C1579.63 45.682 1580.86 46.461 1581.47 47.609C1581.84 45.805 1582.7 44.206 1583.93 42.935C1582.41 41.582 1580.41 40.762 1578.23 40.762C1577.17 40.762 1576.1 40.967 1575.16 41.336ZM1609.38 60.155V42.115C1606.63 43.796 1604.46 47.199 1604.46 51.135C1604.46 55.071 1606.63 58.474 1609.38 60.155ZM1615.16 62.492C1613.31 62.492 1611.59 62.041 1610.03 61.262V71.02H1609.38V60.893C1607.08 59.622 1605.28 57.285 1604.46 54.948V71.02H1603.8V40.27H1604.46V47.363C1605.28 44.985 1607.08 42.607 1609.38 41.336V40.27H1610.03V41.008C1611.59 40.229 1613.31 39.778 1615.16 39.778C1621.43 39.778 1626.51 44.862 1626.51 51.135C1626.51 57.408 1621.43 62.492 1615.16 62.492ZM1615.16 56.916C1612.94 56.916 1611.02 55.645 1610.03 53.8V60.524C1611.55 61.344 1613.31 61.836 1615.16 61.836C1621.06 61.836 1625.86 57.039 1625.86 51.135C1625.86 45.231 1621.06 40.434 1615.16 40.434C1613.31 40.434 1611.55 40.885 1610.03 41.705V48.429C1611.02 46.625 1612.94 45.354 1615.16 45.354C1618.35 45.354 1620.94 47.937 1620.94 51.135C1620.94 54.333 1618.35 56.916 1615.16 56.916ZM1615.16 46.01C1612.29 46.01 1610.03 48.306 1610.03 51.135C1610.03 53.964 1612.29 56.26 1615.16 56.26C1617.99 56.26 1620.28 53.964 1620.28 51.135C1620.28 48.306 1617.99 46.01 1615.16 46.01ZM1639.59 62.492C1633.32 62.492 1628.23 57.408 1628.23 51.135C1628.23 44.862 1633.32 39.778 1639.59 39.778C1645.86 39.778 1650.95 44.862 1650.95 51.135C1650.95 57.408 1645.86 62.492 1639.59 62.492ZM1639.59 61.836C1645.5 61.836 1650.29 57.039 1650.29 51.135C1650.29 45.231 1645.5 40.434 1639.59 40.434C1633.69 40.434 1628.89 45.231 1628.89 51.135C1628.89 57.039 1633.69 61.836 1639.59 61.836ZM1639.59 56.916C1636.39 56.916 1633.81 54.333 1633.81 51.135C1633.81 47.937 1636.39 45.354 1639.59 45.354C1642.79 45.354 1645.37 47.937 1645.37 51.135C1645.37 54.333 1642.79 56.916 1639.59 56.916ZM1639.59 56.26C1642.42 56.26 1644.72 53.964 1644.72 51.135C1644.72 48.306 1642.42 46.01 1639.59 46.01C1636.76 46.01 1634.47 48.306 1634.47 51.135C1634.47 53.964 1636.76 56.26 1639.59 56.26ZM1653.89 62V40.27H1654.54V46.461C1655.45 44.124 1657.21 42.197 1659.46 41.09V40.27H1660.12V40.762C1661.27 40.311 1662.5 40.065 1663.81 40.065C1669.26 40.065 1673.73 44.534 1673.73 49.987V62H1673.08V49.987C1673.08 44.903 1668.89 40.721 1663.81 40.721C1662.5 40.721 1661.27 41.008 1660.12 41.5V47.691C1660.9 46.461 1662.25 45.641 1663.81 45.641C1666.19 45.641 1668.16 47.609 1668.16 49.987V62H1667.5V49.987C1667.5 47.978 1665.82 46.297 1663.81 46.297C1661.8 46.297 1660.12 47.978 1660.12 49.987V62H1659.46V41.828C1656.55 43.386 1654.54 46.461 1654.54 49.987V62H1653.89ZM1676.36 51.135C1676.36 44.862 1681.45 39.778 1687.72 39.778C1692.72 39.778 1696.94 42.976 1698.46 47.486L1685.14 55.563C1685.91 56.014 1686.78 56.26 1687.72 56.26C1689.77 56.26 1691.53 55.03 1692.35 53.308L1692.97 53.595C1692.06 55.563 1690.06 56.916 1687.72 56.916C1686.53 56.916 1685.42 56.547 1684.52 55.932L1680.09 58.638C1682.02 60.606 1684.73 61.836 1687.72 61.836C1691.98 61.836 1695.71 59.294 1697.44 55.645L1698.01 55.932C1696.21 59.827 1692.27 62.492 1687.72 62.492C1681.45 62.492 1676.36 57.408 1676.36 51.135ZM1677.02 51.135C1677.02 52.324 1677.22 53.431 1677.55 54.497L1681.98 51.791C1681.94 51.586 1681.94 51.34 1681.94 51.135C1681.94 47.937 1684.52 45.354 1687.72 45.354C1688.91 45.354 1690.06 45.723 1690.96 46.338L1695.34 43.673C1693.42 41.664 1690.71 40.434 1687.72 40.434C1681.81 40.434 1677.02 45.231 1677.02 51.135ZM1677.8 55.112C1678.25 56.219 1678.86 57.244 1679.64 58.146L1683.95 55.522C1683.04 54.743 1682.39 53.677 1682.1 52.488L1677.8 55.112ZM1682.59 51.135V51.422L1690.34 46.707C1689.56 46.256 1688.66 46.01 1687.72 46.01C1684.89 46.01 1682.59 48.306 1682.59 51.135ZM1682.68 52.16C1682.92 53.349 1683.62 54.415 1684.56 55.153L1692.76 50.151C1692.52 48.962 1691.86 47.896 1690.92 47.117L1682.68 52.16ZM1691.53 46.789C1692.43 47.568 1693.09 48.593 1693.34 49.823L1697.68 47.158C1697.23 46.051 1696.57 45.067 1695.84 44.165L1691.53 46.789ZM1700.45 62V40.27H1701.11V46.461C1702.01 44.124 1703.77 42.197 1706.03 41.09V40.27H1706.69V40.762C1707.83 40.311 1709.06 40.065 1710.38 40.065C1715.83 40.065 1720.3 44.534 1720.3 49.987V62H1719.64V49.987C1719.64 44.903 1715.46 40.721 1710.38 40.721C1709.06 40.721 1707.83 41.008 1706.69 41.5V47.691C1707.46 46.461 1708.82 45.641 1710.38 45.641C1712.75 45.641 1714.72 47.609 1714.72 49.987V62H1714.07V49.987C1714.07 47.978 1712.38 46.297 1710.38 46.297C1708.37 46.297 1706.69 47.978 1706.69 49.987V62H1706.03V41.828C1703.12 43.386 1701.11 46.461 1701.11 49.987V62H1700.45ZM1725.81 40.926H1722.57V40.27H1725.81V33.3H1726.46V40.27H1731.38V33.3H1732.04V40.27H1735.28V40.926H1732.04V45.846H1735.28V46.502H1732.04V62H1731.38V46.502H1726.46V62H1725.81V46.502H1722.57V45.846H1725.81V40.926ZM1731.38 40.926H1726.46V45.846H1731.38V40.926ZM1737.27 46.953C1737.27 42.976 1740.46 39.778 1744.44 39.778C1747.39 39.778 1749.94 41.582 1751.04 44.124L1750.43 44.411C1749.44 42.074 1747.11 40.434 1744.44 40.434C1740.83 40.434 1737.92 43.345 1737.92 46.953C1737.92 50.028 1740.01 52.57 1742.88 53.308L1744.69 53.759C1745.38 53.923 1745.88 54.579 1745.88 55.317C1745.88 56.219 1745.18 56.916 1744.28 56.916C1743.58 56.916 1743.01 56.506 1742.76 55.85L1743.38 55.604C1743.5 55.973 1743.83 56.26 1744.28 56.26C1744.81 56.26 1745.22 55.85 1745.22 55.317C1745.22 54.866 1744.97 54.497 1744.52 54.374L1742.68 53.923C1739.56 53.144 1737.27 50.315 1737.27 46.953ZM1737.68 58.187L1738.29 57.9C1739.28 60.237 1741.57 61.836 1744.28 61.836C1747.89 61.836 1750.8 58.925 1750.8 55.317C1750.8 52.242 1748.71 49.7 1745.84 48.962L1744.03 48.511C1743.29 48.306 1742.84 47.691 1742.84 46.953C1742.84 46.051 1743.54 45.354 1744.44 45.354C1745.14 45.354 1745.71 45.805 1745.92 46.42L1745.34 46.666C1745.22 46.297 1744.85 46.01 1744.44 46.01C1743.91 46.01 1743.5 46.42 1743.5 46.953C1743.5 47.404 1743.74 47.773 1744.2 47.896L1746.04 48.347C1749.2 49.126 1751.45 51.955 1751.45 55.317C1751.45 59.294 1748.25 62.492 1744.28 62.492C1741.33 62.492 1738.78 60.729 1737.68 58.187ZM1762.58 41.746C1762.58 36.826 1766.6 32.849 1771.68 32.849C1775.62 32.849 1778.94 35.268 1780.21 38.671L1779.63 38.917C1778.45 35.719 1775.33 33.423 1771.68 33.464C1767.01 33.505 1763.19 37.154 1763.23 41.746C1763.28 45.6 1765.9 48.88 1769.55 49.7L1772.5 50.356C1773.98 50.684 1775.08 52.037 1775.08 53.554C1775.08 55.399 1773.53 56.875 1771.56 56.875C1769.88 56.875 1768.48 55.768 1768.11 54.292L1768.73 54.005C1768.97 55.276 1770.12 56.301 1771.56 56.26C1773.16 56.219 1774.39 55.03 1774.43 53.554C1774.47 52.324 1773.57 51.258 1772.3 50.971L1769.43 50.356C1765.41 49.495 1762.58 45.887 1762.58 41.746ZM1762.99 56.629L1763.6 56.342C1764.75 59.581 1767.87 61.877 1771.56 61.836C1776.23 61.795 1780.04 58.146 1780 53.554C1779.96 49.7 1777.34 46.42 1773.69 45.6L1770.74 44.944C1769.26 44.616 1768.15 43.263 1768.15 41.746C1768.15 39.901 1769.71 38.425 1771.68 38.425C1773.36 38.425 1774.76 39.491 1775.08 40.967L1774.51 41.254C1774.26 39.983 1773.07 38.999 1771.68 39.04C1770.08 39.081 1768.85 40.27 1768.81 41.746C1768.77 42.976 1769.67 44.042 1770.94 44.329L1773.81 44.944C1777.83 45.805 1780.66 49.413 1780.66 53.554C1780.66 58.474 1776.64 62.451 1771.56 62.451C1767.58 62.451 1764.26 60.032 1762.99 56.629ZM1785.46 40.926H1782.23V40.27H1785.46V33.3H1786.12V40.27H1791.04V33.3H1791.7V40.27H1794.94V40.926H1791.7V45.846H1794.94V46.502H1791.7V62H1791.04V46.502H1786.12V62H1785.46V46.502H1782.23V45.846H1785.46V40.926ZM1791.04 40.926H1786.12V45.846H1791.04V40.926ZM1819.93 40.27L1805.74 71.02H1805.04L1807.58 65.526L1804.71 59.376L1799.34 71.02H1798.65L1804.39 58.597L1795.82 40.27H1796.51L1804.71 57.859L1807.54 51.75L1802.21 40.27H1802.91L1807.91 50.971L1812.83 40.27H1813.53L1808.24 51.709L1811.11 57.859L1819.23 40.27H1819.93ZM1807.95 64.747L1810.78 58.638L1807.91 52.488L1805.08 58.638L1807.95 64.747ZM1822.55 31.25V62H1821.89V31.25H1822.55ZM1828.12 31.25V62H1827.47V31.25H1828.12ZM1831.07 51.135C1831.07 44.862 1836.16 39.778 1842.43 39.778C1847.43 39.778 1851.65 42.976 1853.17 47.486L1839.85 55.563C1840.63 56.014 1841.49 56.26 1842.43 56.26C1844.48 56.26 1846.24 55.03 1847.06 53.308L1847.68 53.595C1846.78 55.563 1844.77 56.916 1842.43 56.916C1841.24 56.916 1840.13 56.547 1839.23 55.932L1834.8 58.638C1836.73 60.606 1839.44 61.836 1842.43 61.836C1846.69 61.836 1850.42 59.294 1852.15 55.645L1852.72 55.932C1850.92 59.827 1846.98 62.492 1842.43 62.492C1836.16 62.492 1831.07 57.408 1831.07 51.135ZM1831.73 51.135C1831.73 52.324 1831.93 53.431 1832.26 54.497L1836.69 51.791C1836.65 51.586 1836.65 51.34 1836.65 51.135C1836.65 47.937 1839.23 45.354 1842.43 45.354C1843.62 45.354 1844.77 45.723 1845.67 46.338L1850.06 43.673C1848.13 41.664 1845.42 40.434 1842.43 40.434C1836.53 40.434 1831.73 45.231 1831.73 51.135ZM1832.51 55.112C1832.96 56.219 1833.57 57.244 1834.35 58.146L1838.66 55.522C1837.76 54.743 1837.1 53.677 1836.81 52.488L1832.51 55.112ZM1837.3 51.135V51.422L1845.05 46.707C1844.27 46.256 1843.37 46.01 1842.43 46.01C1839.6 46.01 1837.3 48.306 1837.3 51.135ZM1837.39 52.16C1837.63 53.349 1838.33 54.415 1839.27 55.153L1847.47 50.151C1847.23 48.962 1846.57 47.896 1845.63 47.117L1837.39 52.16ZM1846.24 46.789C1847.14 47.568 1847.8 48.593 1848.05 49.823L1852.39 47.158C1851.94 46.051 1851.29 45.067 1850.55 44.165L1846.24 46.789ZM1853.93 51.135C1853.93 44.862 1859.02 39.778 1865.29 39.778C1867.14 39.778 1868.86 40.229 1870.42 41.008V31.25H1871.07V41.377C1873.37 42.648 1875.13 44.944 1875.99 47.322V31.25H1876.65V62H1875.99V54.907C1875.17 57.244 1873.37 59.663 1871.07 60.934V62H1870.42V61.262C1868.86 62.041 1867.14 62.492 1865.29 62.492C1859.02 62.492 1853.93 57.408 1853.93 51.135ZM1854.59 51.135C1854.59 57.039 1859.39 61.836 1865.29 61.836C1867.14 61.836 1868.9 61.385 1870.42 60.565V53.841C1869.43 55.645 1867.51 56.916 1865.29 56.916C1862.09 56.916 1859.51 54.333 1859.51 51.135C1859.51 47.937 1862.09 45.354 1865.29 45.354C1867.51 45.354 1869.43 46.625 1870.42 48.47V41.746C1868.9 40.926 1867.14 40.434 1865.29 40.434C1859.39 40.434 1854.59 45.231 1854.59 51.135ZM1860.17 51.135C1860.17 53.964 1862.46 56.26 1865.29 56.26C1868.16 56.26 1870.42 53.964 1870.42 51.135C1870.42 48.306 1868.16 46.01 1865.29 46.01C1862.46 46.01 1860.17 48.306 1860.17 51.135ZM1871.07 42.115V60.155C1873.82 58.474 1875.99 55.071 1875.99 51.135C1875.99 47.199 1873.82 43.796 1871.07 42.115ZM1904.69 56.424H1902.68C1897.64 56.424 1893.95 52.447 1893.95 47.65C1893.95 42.812 1897.64 38.876 1902.68 38.876H1904.69V39.532H1902.68C1898.05 39.532 1894.6 43.14 1894.6 47.65C1894.6 52.119 1898.05 55.768 1902.68 55.768H1904.69V56.424ZM1904.69 62H1902.68C1894.73 62 1888.37 55.563 1888.37 47.65C1888.37 39.737 1894.73 33.3 1902.68 33.3H1904.69V33.956H1902.68C1895.06 33.956 1889.03 40.065 1889.03 47.65C1889.03 55.235 1895.06 61.344 1902.68 61.344H1904.69V62ZM1917.46 62.492C1911.19 62.492 1906.11 57.408 1906.11 51.135C1906.11 44.862 1911.19 39.778 1917.46 39.778C1923.74 39.778 1928.82 44.862 1928.82 51.135C1928.82 57.408 1923.74 62.492 1917.46 62.492ZM1917.46 61.836C1923.37 61.836 1928.16 57.039 1928.16 51.135C1928.16 45.231 1923.37 40.434 1917.46 40.434C1911.56 40.434 1906.76 45.231 1906.76 51.135C1906.76 57.039 1911.56 61.836 1917.46 61.836ZM1917.46 56.916C1914.26 56.916 1911.68 54.333 1911.68 51.135C1911.68 47.937 1914.26 45.354 1917.46 45.354C1920.66 45.354 1923.24 47.937 1923.24 51.135C1923.24 54.333 1920.66 56.916 1917.46 56.916ZM1917.46 56.26C1920.29 56.26 1922.59 53.964 1922.59 51.135C1922.59 48.306 1920.29 46.01 1917.46 46.01C1914.63 46.01 1912.34 48.306 1912.34 51.135C1912.34 53.964 1914.63 56.26 1917.46 56.26ZM1931.76 62V40.27H1932.42V45.969C1933.32 43.714 1935.12 41.869 1937.34 40.885V40.27H1937.99V40.639C1938.93 40.311 1940 40.106 1941.07 40.106C1943.44 40.106 1945.62 41.008 1947.26 42.484C1948.9 41.008 1951.07 40.106 1953.45 40.106C1958.57 40.106 1962.76 44.288 1962.76 49.413V62H1962.1V49.413C1962.1 44.657 1958.2 40.762 1953.45 40.762C1951.28 40.762 1949.27 41.582 1947.75 42.935C1948.98 44.206 1949.84 45.805 1950.21 47.609C1950.82 46.461 1952.05 45.682 1953.45 45.682C1955.5 45.682 1957.18 47.363 1957.18 49.413V62H1956.52V49.413C1956.52 47.732 1955.13 46.338 1953.45 46.338C1951.77 46.338 1950.37 47.732 1950.37 49.413V62H1949.72V49.413C1949.72 47.076 1948.77 44.944 1947.26 43.386C1945.74 44.944 1944.8 47.076 1944.8 49.413V62H1944.14V49.413C1944.14 47.732 1942.75 46.338 1941.07 46.338C1939.39 46.338 1937.99 47.732 1937.99 49.413V62H1937.34V41.623C1934.42 43.017 1932.42 46.01 1932.42 49.413V62H1931.76ZM1937.99 41.336V47.322C1938.65 46.338 1939.8 45.682 1941.07 45.682C1942.46 45.682 1943.69 46.461 1944.31 47.609C1944.67 45.805 1945.54 44.206 1946.77 42.935C1945.25 41.582 1943.24 40.762 1941.07 40.762C1940 40.762 1938.93 40.967 1937.99 41.336Z" fill="white"/>
</g>
<defs>
<clipPath id="clip0_880_619">
<rect width="1940" height="343" fill="white"/>
</clipPath>
</defs>
</svg>
