<svg viewBox="0 0 436 264" fill="none" xmlns="http://www.w3.org/2000/svg"><path d="M397.071 204.698C397.071 205.045 397.071 205.393 397.071 205.393C397.071 217.203 387.592 226.583 375.656 226.583C363.72 226.583 354.242 217.203 354.242 205.393C354.242 205.045 354.242 204.698 354.242 204.698H315.977C316.328 237.004 342.657 263.058 375.656 263.058C408.305 263.058 434.985 237.004 435.336 204.698H397.071Z" fill="#FF4575"></path><path d="M435.34 204.016C434.98 204.375 434.98 204.375 435.34 204.016C434.98 204.375 435.34 204.375 435.34 204.016Z" fill="#FF0055"></path><path d="M434.989 204.355C434.638 171.701 408.308 145.647 375.309 145.647C342.66 145.647 315.98 171.701 315.629 204.007C315.629 204.007 315.629 204.007 315.629 204.355C315.629 204.355 315.629 204.355 315.629 204.702H354.245C354.596 193.586 364.075 184.554 375.66 184.554C387.245 184.554 396.372 193.586 397.074 204.702L434.989 204.355C435.34 204.355 434.989 204.355 434.989 204.355Z" fill="#FFC700"></path><path d="M303.686 204.352C303.686 236.659 277.357 263.06 244.357 263.06C211.709 263.06 185.028 236.659 185.028 204.352C185.028 172.046 211.358 145.645 244.357 145.645C260.506 145.645 275.25 152.245 286.133 162.667C286.133 162.667 215.57 205.047 216.273 204.352H303.686Z" fill="white"></path><path d="M133.776 145.647H174.499V263.062H133.776V145.647Z" fill="#FFAEC1"></path><path d="M146.764 258.891C145.71 258.891 145.008 258.544 143.955 258.544H141.498C138.689 258.544 136.232 258.891 133.774 259.586V263.06H158.349C156.242 262.018 154.136 260.976 152.029 260.281C150.274 259.586 148.519 259.239 146.764 258.891Z" fill="white"></path><path d="M164.671 250.214C161.511 247.782 158.001 245.698 154.139 244.308C153.086 243.961 152.033 243.614 151.331 243.266C150.278 242.919 149.224 242.571 148.171 242.571C147.118 242.224 146.065 242.224 145.012 242.224H141.852C139.044 242.224 136.586 242.572 134.129 243.266V249.519C136.586 248.824 139.395 248.13 141.852 248.13C148.873 248.13 155.192 251.256 160.809 255.772C163.618 257.856 166.075 260.288 168.533 263.067C168.533 263.414 168.884 263.414 168.884 263.762H174.501V259.593C171.341 255.772 168.182 252.993 164.671 250.214Z" fill="white"></path><path d="M174.146 241.87C171.338 239.091 168.178 236.312 165.019 233.533C161.508 231.101 157.997 228.669 153.785 226.932L150.625 225.89C149.572 225.543 148.168 225.543 147.115 225.196C145.71 224.848 144.657 224.848 143.604 224.848H142.2C141.849 224.848 142.2 224.848 141.498 224.848H141.147H140.445C139.391 224.848 137.987 224.848 136.934 225.196L133.774 225.89V231.796C134.125 231.796 134.477 231.448 134.828 231.448L137.636 230.754C138.689 230.406 139.391 230.754 140.445 230.406H141.147H141.498C141.147 230.406 141.498 230.406 141.498 230.406H142.902C143.955 230.406 145.008 230.406 145.71 230.754C146.413 231.101 147.466 231.101 148.168 231.448L150.625 232.491C154.136 233.88 157.295 235.964 160.104 238.396C165.019 242.565 169.582 247.428 173.444 252.291L174.146 241.87Z" fill="white"></path><path d="M165.022 216.506C161.511 214.075 158.001 211.643 153.788 209.906L150.629 208.864C149.575 208.517 148.171 208.517 147.118 208.169C146.065 207.822 145.012 207.822 143.959 207.822H142.554C142.203 207.822 142.554 207.822 141.852 207.822H141.501H140.799C139.746 207.822 138.342 207.822 137.288 208.169L134.129 208.864V214.422C134.48 214.422 134.831 214.075 135.182 214.075L137.991 213.38C139.044 213.032 139.746 213.38 140.799 213.032H141.501H141.852C141.501 213.032 141.852 213.032 142.203 213.032H143.607C144.661 213.032 145.714 213.032 146.416 213.38C147.118 213.727 148.171 213.727 148.873 214.075L151.682 215.117C155.192 216.506 158.352 218.591 161.511 221.022C166.426 225.191 170.639 229.707 174.852 234.57V224.843C171.341 222.064 168.182 218.938 165.022 216.506Z" fill="white"></path><path d="M164.668 199.15C161.157 196.719 157.646 194.287 153.434 192.55L150.274 191.508C149.221 191.161 147.817 191.161 146.764 190.813C145.71 190.466 144.657 190.466 143.604 190.466H142.2C141.849 190.466 142.2 190.466 141.498 190.466H141.147H140.445C139.391 190.466 137.987 190.466 136.934 190.813L133.774 191.508V196.719C134.125 196.719 134.477 196.371 134.828 196.371L137.636 195.677C138.689 195.329 139.391 195.677 140.445 195.329H141.147H141.498C141.147 195.329 141.498 195.329 141.849 195.329H143.253C144.306 195.329 145.359 195.329 146.061 195.677C146.764 196.024 147.817 196.024 148.519 196.371L151.327 197.413C154.838 198.803 157.997 200.887 161.157 203.319C166.072 207.14 170.284 212.003 174.146 216.867V207.835C171.338 205.056 168.178 201.929 164.668 199.15Z" fill="white"></path><path d="M164.677 189.068C168.187 192.195 171.347 196.016 174.506 199.837V191.153C173.804 190.458 173.102 189.763 172.4 189.068H164.677Z" fill="white"></path><path d="M78.6523 202.624V263.068H119.024V202.276L88.1309 202.624H78.6523Z" fill="white"></path><path d="M60.0495 145.647C27.4011 145.647 0.720703 170.659 0.720703 201.923V263.062H41.4435V202.618H79.0067H88.4852H119.378C119.027 171.006 92.6979 145.647 60.0495 145.647Z" fill="#FFC700"></path><path d="M394.587 0.786133H435.31V118.201H394.587V0.786133Z" fill="#FF4575"></path><path d="M360.54 0.786133H319.817V59.4934H360.54V0.786133Z" fill="#FFAEC1"></path><path d="M319.817 62.2742V118.202H360.54V62.2742V59.4951H319.817V62.2742Z" fill="white"></path><path d="M367.91 41.0845C365.452 42.8214 362.644 44.5583 360.187 46.2952V52.8954C365.803 48.7268 371.42 44.9057 377.037 41.0845H367.91Z" fill="#0025FF"></path><path d="M365.452 62.2695C372.122 56.3641 379.495 51.1533 386.867 45.9426L392.484 42.1215L394.239 40.7319H385.463C377.388 45.9426 369.314 51.5007 361.591 57.7536C361.24 58.1009 360.538 58.4483 360.187 59.1431V67.1328C361.942 65.7433 363.697 64.0064 365.452 62.2695Z" fill="#0025FF"></path><path d="M373.532 71.6539C376.341 68.1801 379.149 65.0537 382.66 62.2747C389.33 56.3692 396.702 51.1585 404.074 45.9478C406.532 44.2109 408.989 42.8214 411.446 41.0845H403.372C394.947 46.2952 386.872 51.8533 379.149 58.4535C375.639 61.5799 372.128 64.7063 369.319 68.1801C366.16 71.6539 363.703 75.8225 361.947 80.3384H368.266C369.671 77.212 371.426 74.433 373.532 71.6539Z" fill="#0025FF"></path><path d="M400.218 62.2714C406.537 56.3659 413.91 50.8079 421.282 45.2498C423.739 43.5129 425.846 41.776 428.303 40.0391L420.58 40.3864C412.505 45.9445 404.431 51.85 397.059 58.4502C393.548 61.5767 390.389 65.0505 387.58 68.5243C384.772 71.9981 382.314 76.1666 380.91 80.6826L386.527 80.3352C387.931 77.2088 389.687 74.0823 391.793 71.3033C393.899 68.5243 397.059 65.3978 400.218 62.2714Z" fill="#0025FF"></path><path d="M417.415 61.9243C423.032 57.061 429 52.5451 435.319 48.3765V43.5132C428.297 48.3765 420.925 53.2398 414.255 58.7979C410.745 61.9243 407.234 65.0508 404.425 68.5246C401.617 71.9984 398.809 76.1669 397.404 80.3355H402.67C405.83 73.3879 411.447 67.4824 417.415 61.9243Z" fill="#0025FF"></path><path d="M434.618 61.9255C434.969 61.9255 434.969 61.5781 435.32 61.5781V56.02C434.267 57.0622 432.863 57.7569 431.81 58.7991C428.299 61.9255 424.789 65.0519 421.98 68.5257C419.172 71.9995 416.714 75.8207 414.959 80.3366H419.874C421.278 77.2102 423.384 74.0838 425.491 71.3048C428.299 67.8309 431.459 65.0519 434.618 61.9255Z" fill="#0025FF"></path><path d="M435.321 74.4297C434.268 76.1666 433.215 78.2509 432.513 80.3352H435.321V74.4297Z" fill="#0025FF"></path><path d="M307.555 118.201C274.907 118.201 248.227 91.7998 248.227 59.4934C248.227 27.187 274.556 0.786133 307.555 0.786133V118.201Z" fill="#FFD338"></path><path d="M181.866 1.12879C198.366 1.12879 213.11 7.72902 223.642 18.1504C212.759 7.38164 198.015 0.781413 181.866 1.12879C148.866 1.12879 122.537 27.1823 122.537 59.8361C122.537 27.1823 148.866 1.12879 181.866 1.12879Z" fill="#D1A537"></path><path d="M181.513 118.545C197.662 118.545 212.407 111.945 223.289 101.524C223.289 101.524 153.078 59.4907 153.429 59.8381H122.185C122.536 92.1445 148.865 118.545 181.513 118.545Z" fill="#FF4575"></path><path d="M241.192 59.4868C241.192 43.16 234.522 28.57 223.991 18.1486C213.459 7.72718 198.363 1.12695 182.215 1.12695C149.566 1.12695 122.886 27.1805 122.886 59.8342H154.13L241.192 59.4868Z" fill="#FFAEC1"></path><path d="M55.1396 1.14014H95.8624V118.555H55.1396V1.14014Z" fill="#FF4575"></path><path d="M114.464 22.6758V62.9719H0.720703V22.6758H114.464Z" fill="white"></path></svg>