<svg width="300" height="446" viewBox="0 0 300 446" fill="none" xmlns="http://www.w3.org/2000/svg">
<rect x="1.5" y="1.5" width="297" height="443" fill="#E6E6E6" stroke="#007BFF" stroke-width="3"/>
<path d="M93.9902 220V210.694H95.2534L100.141 218V210.694H101.322V220H100.059L95.1709 212.688V220H93.9902ZM102.826 216.629C102.826 215.381 103.173 214.456 103.867 213.855C104.447 213.356 105.154 213.106 105.987 213.106C106.914 213.106 107.672 213.411 108.26 214.021C108.848 214.626 109.142 215.464 109.142 216.534C109.142 217.402 109.011 218.085 108.749 218.584C108.49 219.08 108.112 219.465 107.612 219.74C107.117 220.015 106.576 220.152 105.987 220.152C105.044 220.152 104.28 219.85 103.696 219.245C103.116 218.639 102.826 217.768 102.826 216.629ZM104 216.629C104 217.493 104.189 218.14 104.565 218.572C104.942 218.999 105.416 219.213 105.987 219.213C106.554 219.213 107.026 218.997 107.403 218.565C107.779 218.134 107.968 217.476 107.968 216.591C107.968 215.758 107.777 215.127 107.396 214.7C107.02 214.268 106.55 214.052 105.987 214.052C105.416 214.052 104.942 214.266 104.565 214.693C104.189 215.121 104 215.766 104 216.629ZM114.106 222.583V213.259H115.147V214.135C115.392 213.792 115.67 213.536 115.979 213.367C116.287 213.193 116.662 213.106 117.102 213.106C117.678 213.106 118.185 213.255 118.625 213.551C119.066 213.847 119.398 214.266 119.622 214.808C119.846 215.345 119.958 215.935 119.958 216.579C119.958 217.268 119.834 217.89 119.584 218.445C119.339 218.995 118.979 219.418 118.505 219.714C118.035 220.006 117.54 220.152 117.02 220.152C116.639 220.152 116.296 220.072 115.991 219.911C115.691 219.75 115.443 219.547 115.249 219.302V222.583H114.106ZM115.141 216.667C115.141 217.535 115.316 218.176 115.667 218.591C116.019 219.006 116.444 219.213 116.943 219.213C117.451 219.213 117.885 218.999 118.245 218.572C118.609 218.14 118.791 217.474 118.791 216.572C118.791 215.713 118.613 215.07 118.257 214.643C117.906 214.215 117.485 214.001 116.994 214.001C116.507 214.001 116.076 214.23 115.699 214.687C115.327 215.14 115.141 215.8 115.141 216.667ZM120.917 216.629C120.917 215.381 121.264 214.456 121.958 213.855C122.538 213.356 123.244 213.106 124.078 213.106C125.005 213.106 125.762 213.411 126.351 214.021C126.939 214.626 127.233 215.464 127.233 216.534C127.233 217.402 127.102 218.085 126.839 218.584C126.581 219.08 126.202 219.465 125.703 219.74C125.208 220.015 124.666 220.152 124.078 220.152C123.134 220.152 122.371 219.85 121.787 219.245C121.207 218.639 120.917 217.768 120.917 216.629ZM122.091 216.629C122.091 217.493 122.28 218.14 122.656 218.572C123.033 218.999 123.507 219.213 124.078 219.213C124.645 219.213 125.117 218.997 125.494 218.565C125.87 218.134 126.059 217.476 126.059 216.591C126.059 215.758 125.868 215.127 125.487 214.7C125.111 214.268 124.641 214.052 124.078 214.052C123.507 214.052 123.033 214.266 122.656 214.693C122.28 215.121 122.091 215.766 122.091 216.629ZM128.122 217.988L129.251 217.81C129.315 218.263 129.491 218.61 129.778 218.851C130.07 219.092 130.477 219.213 130.997 219.213C131.522 219.213 131.911 219.107 132.165 218.896C132.419 218.68 132.546 218.428 132.546 218.14C132.546 217.882 132.434 217.679 132.209 217.531C132.053 217.429 131.664 217.3 131.042 217.144C130.204 216.932 129.622 216.75 129.296 216.598C128.974 216.441 128.729 216.227 128.56 215.957C128.395 215.681 128.312 215.379 128.312 215.049C128.312 214.748 128.38 214.471 128.515 214.217C128.655 213.959 128.843 213.745 129.08 213.576C129.258 213.445 129.499 213.335 129.804 213.246C130.113 213.153 130.443 213.106 130.794 213.106C131.323 213.106 131.786 213.183 132.184 213.335C132.586 213.487 132.882 213.695 133.073 213.957C133.263 214.215 133.394 214.562 133.466 214.998L132.349 215.15C132.298 214.803 132.15 214.533 131.905 214.338C131.664 214.143 131.321 214.046 130.876 214.046C130.352 214.046 129.977 214.133 129.753 214.306C129.529 214.48 129.417 214.683 129.417 214.916C129.417 215.064 129.463 215.197 129.556 215.315C129.649 215.438 129.795 215.54 129.994 215.62C130.108 215.662 130.445 215.76 131.003 215.912C131.812 216.128 132.375 216.306 132.692 216.445C133.014 216.581 133.265 216.78 133.447 217.042C133.629 217.304 133.72 217.63 133.72 218.02C133.72 218.4 133.608 218.76 133.384 219.099C133.164 219.433 132.844 219.693 132.425 219.879C132.006 220.061 131.532 220.152 131.003 220.152C130.127 220.152 129.459 219.97 128.998 219.606C128.541 219.243 128.249 218.703 128.122 217.988ZM137.573 218.978L137.738 219.987C137.417 220.055 137.129 220.089 136.875 220.089C136.46 220.089 136.139 220.023 135.91 219.892C135.682 219.761 135.521 219.59 135.428 219.378C135.335 219.162 135.288 218.711 135.288 218.026V214.147H134.45V213.259H135.288V211.589L136.424 210.904V213.259H137.573V214.147H136.424V218.089C136.424 218.415 136.443 218.625 136.481 218.718C136.524 218.811 136.589 218.885 136.678 218.94C136.771 218.995 136.903 219.022 137.072 219.022C137.199 219.022 137.366 219.008 137.573 218.978ZM143.312 217.829L144.492 217.975C144.306 218.665 143.961 219.2 143.458 219.581C142.954 219.962 142.311 220.152 141.528 220.152C140.542 220.152 139.759 219.85 139.179 219.245C138.604 218.635 138.316 217.783 138.316 216.687C138.316 215.552 138.608 214.672 139.192 214.046C139.776 213.42 140.533 213.106 141.464 213.106C142.366 213.106 143.102 213.413 143.673 214.027C144.245 214.64 144.53 215.504 144.53 216.617C144.53 216.684 144.528 216.786 144.524 216.921H139.497C139.539 217.662 139.748 218.229 140.125 218.623C140.502 219.016 140.971 219.213 141.534 219.213C141.953 219.213 142.311 219.103 142.607 218.883C142.903 218.663 143.138 218.312 143.312 217.829ZM139.56 215.982H143.324C143.273 215.415 143.13 214.99 142.893 214.706C142.529 214.266 142.057 214.046 141.477 214.046C140.952 214.046 140.51 214.222 140.15 214.573C139.795 214.924 139.598 215.394 139.56 215.982ZM145.92 220V213.259H146.949V214.281C147.211 213.803 147.452 213.487 147.672 213.335C147.897 213.183 148.142 213.106 148.409 213.106C148.794 213.106 149.185 213.229 149.583 213.475L149.189 214.535C148.91 214.37 148.631 214.287 148.352 214.287C148.102 214.287 147.878 214.363 147.679 214.516C147.48 214.664 147.338 214.871 147.253 215.138C147.126 215.544 147.063 215.988 147.063 216.471V220H145.92ZM158.279 219.168C157.856 219.528 157.448 219.782 157.054 219.93C156.665 220.078 156.246 220.152 155.797 220.152C155.057 220.152 154.488 219.972 154.09 219.613C153.692 219.249 153.493 218.785 153.493 218.223C153.493 217.893 153.567 217.592 153.715 217.321C153.868 217.046 154.064 216.826 154.306 216.661C154.551 216.496 154.826 216.371 155.131 216.287C155.355 216.227 155.694 216.17 156.146 216.115C157.069 216.005 157.748 215.874 158.184 215.722C158.188 215.565 158.19 215.466 158.19 215.423C158.19 214.958 158.083 214.63 157.867 214.439C157.575 214.181 157.141 214.052 156.565 214.052C156.028 214.052 155.63 214.147 155.372 214.338C155.118 214.524 154.93 214.856 154.807 215.334L153.69 215.182C153.792 214.704 153.959 214.319 154.191 214.027C154.424 213.731 154.761 213.504 155.201 213.348C155.641 213.187 156.151 213.106 156.73 213.106C157.306 213.106 157.774 213.174 158.133 213.31C158.493 213.445 158.757 213.616 158.927 213.824C159.096 214.027 159.215 214.285 159.282 214.598C159.32 214.793 159.339 215.144 159.339 215.652V217.175C159.339 218.237 159.363 218.91 159.409 219.194C159.46 219.473 159.557 219.742 159.701 220H158.508C158.389 219.763 158.313 219.486 158.279 219.168ZM158.184 216.617C157.769 216.786 157.147 216.93 156.318 217.048C155.848 217.116 155.516 217.192 155.321 217.277C155.127 217.361 154.976 217.486 154.871 217.651C154.765 217.812 154.712 217.992 154.712 218.191C154.712 218.496 154.826 218.75 155.055 218.953C155.287 219.156 155.626 219.257 156.07 219.257C156.51 219.257 156.902 219.162 157.245 218.972C157.587 218.777 157.839 218.513 158 218.178C158.123 217.92 158.184 217.539 158.184 217.036V216.617ZM162.989 220L160.425 213.259H161.631L163.078 217.296C163.235 217.732 163.379 218.185 163.51 218.654C163.611 218.299 163.753 217.871 163.935 217.372L165.433 213.259H166.607L164.056 220H162.989ZM172.016 219.168C171.592 219.528 171.184 219.782 170.791 219.93C170.401 220.078 169.982 220.152 169.534 220.152C168.793 220.152 168.224 219.972 167.826 219.613C167.428 219.249 167.229 218.785 167.229 218.223C167.229 217.893 167.304 217.592 167.452 217.321C167.604 217.046 167.801 216.826 168.042 216.661C168.287 216.496 168.562 216.371 168.867 216.287C169.091 216.227 169.43 216.17 169.883 216.115C170.805 216.005 171.485 215.874 171.92 215.722C171.925 215.565 171.927 215.466 171.927 215.423C171.927 214.958 171.819 214.63 171.603 214.439C171.311 214.181 170.877 214.052 170.302 214.052C169.764 214.052 169.367 214.147 169.108 214.338C168.854 214.524 168.666 214.856 168.543 215.334L167.426 215.182C167.528 214.704 167.695 214.319 167.928 214.027C168.16 213.731 168.497 213.504 168.937 213.348C169.377 213.187 169.887 213.106 170.467 213.106C171.042 213.106 171.51 213.174 171.87 213.31C172.229 213.445 172.494 213.616 172.663 213.824C172.832 214.027 172.951 214.285 173.019 214.598C173.057 214.793 173.076 215.144 173.076 215.652V217.175C173.076 218.237 173.099 218.91 173.146 219.194C173.196 219.473 173.294 219.742 173.438 220H172.244C172.126 219.763 172.049 219.486 172.016 219.168ZM171.92 216.617C171.506 216.786 170.884 216.93 170.054 217.048C169.584 217.116 169.252 217.192 169.058 217.277C168.863 217.361 168.713 217.486 168.607 217.651C168.501 217.812 168.448 217.992 168.448 218.191C168.448 218.496 168.562 218.75 168.791 218.953C169.024 219.156 169.362 219.257 169.807 219.257C170.247 219.257 170.638 219.162 170.981 218.972C171.324 218.777 171.576 218.513 171.736 218.178C171.859 217.92 171.92 217.539 171.92 217.036V216.617ZM174.859 212.008V210.694H176.002V212.008H174.859ZM174.859 220V213.259H176.002V220H174.859ZM177.722 220V210.694H178.865V220H177.722ZM185.041 219.168C184.618 219.528 184.209 219.782 183.816 219.93C183.427 220.078 183.008 220.152 182.559 220.152C181.819 220.152 181.249 219.972 180.852 219.613C180.454 219.249 180.255 218.785 180.255 218.223C180.255 217.893 180.329 217.592 180.477 217.321C180.629 217.046 180.826 216.826 181.067 216.661C181.313 216.496 181.588 216.371 181.893 216.287C182.117 216.227 182.455 216.17 182.908 216.115C183.831 216.005 184.51 215.874 184.946 215.722C184.95 215.565 184.952 215.466 184.952 215.423C184.952 214.958 184.844 214.63 184.628 214.439C184.336 214.181 183.903 214.052 183.327 214.052C182.79 214.052 182.392 214.147 182.134 214.338C181.88 214.524 181.692 214.856 181.569 215.334L180.452 215.182C180.553 214.704 180.72 214.319 180.953 214.027C181.186 213.731 181.522 213.504 181.962 213.348C182.403 213.187 182.912 213.106 183.492 213.106C184.068 213.106 184.535 213.174 184.895 213.31C185.255 213.445 185.519 213.616 185.688 213.824C185.858 214.027 185.976 214.285 186.044 214.598C186.082 214.793 186.101 215.144 186.101 215.652V217.175C186.101 218.237 186.124 218.91 186.171 219.194C186.222 219.473 186.319 219.742 186.463 220H185.27C185.151 219.763 185.075 219.486 185.041 219.168ZM184.946 216.617C184.531 216.786 183.909 216.93 183.08 217.048C182.61 217.116 182.278 217.192 182.083 217.277C181.888 217.361 181.738 217.486 181.632 217.651C181.527 217.812 181.474 217.992 181.474 218.191C181.474 218.496 181.588 218.75 181.816 218.953C182.049 219.156 182.388 219.257 182.832 219.257C183.272 219.257 183.664 219.162 184.006 218.972C184.349 218.777 184.601 218.513 184.762 218.178C184.884 217.92 184.946 217.539 184.946 217.036V216.617ZM188.932 220H187.872V210.694H189.015V214.014C189.497 213.409 190.113 213.106 190.862 213.106C191.277 213.106 191.668 213.191 192.036 213.36C192.409 213.525 192.713 213.76 192.95 214.065C193.191 214.365 193.38 214.729 193.515 215.157C193.651 215.584 193.718 216.041 193.718 216.528C193.718 217.683 193.433 218.576 192.861 219.207C192.29 219.837 191.604 220.152 190.805 220.152C190.009 220.152 189.385 219.82 188.932 219.156V220ZM188.919 216.579C188.919 217.387 189.029 217.971 189.25 218.331C189.609 218.919 190.096 219.213 190.709 219.213C191.209 219.213 191.64 218.997 192.004 218.565C192.368 218.13 192.55 217.482 192.55 216.623C192.55 215.743 192.375 215.093 192.023 214.674C191.676 214.255 191.255 214.046 190.76 214.046C190.261 214.046 189.829 214.264 189.465 214.7C189.101 215.131 188.919 215.758 188.919 216.579ZM195.089 220V210.694H196.232V220H195.089ZM202.624 217.829L203.805 217.975C203.618 218.665 203.274 219.2 202.77 219.581C202.266 219.962 201.623 220.152 200.84 220.152C199.854 220.152 199.071 219.85 198.492 219.245C197.916 218.635 197.628 217.783 197.628 216.687C197.628 215.552 197.92 214.672 198.504 214.046C199.088 213.42 199.846 213.106 200.777 213.106C201.678 213.106 202.415 213.413 202.986 214.027C203.557 214.64 203.843 215.504 203.843 216.617C203.843 216.684 203.841 216.786 203.836 216.921H198.809C198.851 217.662 199.061 218.229 199.438 218.623C199.814 219.016 200.284 219.213 200.847 219.213C201.266 219.213 201.623 219.103 201.919 218.883C202.216 218.663 202.451 218.312 202.624 217.829ZM198.873 215.982H202.637C202.586 215.415 202.442 214.99 202.205 214.706C201.841 214.266 201.369 214.046 200.79 214.046C200.265 214.046 199.823 214.222 199.463 214.573C199.107 214.924 198.911 215.394 198.873 215.982Z" fill="black"/>
</svg>
